<svg xmlns="http://www.w3.org/2000/svg" xmlns:xlink="http://www.w3.org/1999/xlink" width="471" zoomAndPan="magnify" viewBox="0 0 353.25 115.499997" height="154" preserveAspectRatio="xMidYMid meet" version="1.0"><defs><g/><clipPath id="523db555e6"><path d="M 0.386719 0 L 337.925781 0 L 337.925781 114 L 0.386719 114 Z M 0.386719 0 " clip-rule="nonzero"/></clipPath><clipPath id="470dd74aae"><path d="M 6.710938 0 L 344.25 0 L 344.25 114 L 6.710938 114 Z M 6.710938 0 " clip-rule="nonzero"/></clipPath><clipPath id="2decc594e5"><path d="M 0.09375 8 L 41 8 L 41 38 L 0.09375 38 Z M 0.09375 8 " clip-rule="nonzero"/></clipPath><clipPath id="1c7141de7f"><rect x="0" width="297" y="0" height="44"/></clipPath><clipPath id="3d042ca8b9"><rect x="0" width="230" y="0" height="19"/></clipPath></defs><g clip-path="url(#523db555e6)"><path fill="#5a5952" d="M 116.253906 2.535156 L 102.824219 43.585938 C 102.746094 43.828125 102.726562 44.070312 102.765625 44.320312 C 102.800781 44.570312 102.894531 44.796875 103.039062 45 C 103.1875 45.207031 103.371094 45.367188 103.59375 45.488281 C 103.816406 45.605469 104.054688 45.664062 104.304688 45.671875 L 336.199219 47.972656 C 336.410156 47.972656 336.613281 48.011719 336.808594 48.09375 C 337.003906 48.175781 337.175781 48.289062 337.324219 48.4375 C 337.472656 48.585938 337.585938 48.757812 337.667969 48.953125 C 337.75 49.148438 337.789062 49.351562 337.789062 49.5625 C 337.789062 49.773438 337.75 49.976562 337.667969 50.171875 C 337.585938 50.363281 337.472656 50.535156 337.324219 50.6875 C 337.175781 50.835938 337.003906 50.949219 336.808594 51.03125 C 336.613281 51.109375 336.410156 51.152344 336.199219 51.152344 L 91.917969 75.484375 C 91.640625 75.519531 91.390625 75.621094 91.164062 75.785156 C 90.941406 75.953125 90.769531 76.164062 90.65625 76.417969 L 75.476562 112.644531 C 75.375 112.882812 75.222656 113.078125 75.027344 113.242188 C 74.828125 113.402344 74.605469 113.511719 74.355469 113.566406 C 74.105469 113.621094 73.855469 113.613281 73.609375 113.550781 C 73.363281 113.484375 73.144531 113.367188 72.953125 113.195312 L 51.414062 93.300781 C 51.199219 93.085938 50.941406 92.949219 50.640625 92.890625 C 50.34375 92.832031 50.054688 92.855469 49.769531 92.96875 L 2.582031 111.878906 C 2.234375 112 1.890625 112.003906 1.542969 111.886719 C 1.199219 111.773438 0.921875 111.5625 0.722656 111.257812 C 0.519531 110.949219 0.4375 110.617188 0.464844 110.253906 C 0.496094 109.886719 0.632812 109.570312 0.882812 109.304688 L 33.382812 76.417969 C 33.515625 76.273438 33.617188 76.105469 33.6875 75.921875 C 33.761719 75.738281 33.796875 75.546875 33.796875 75.347656 C 33.796875 75.152344 33.761719 74.960938 33.6875 74.777344 C 33.617188 74.59375 33.515625 74.425781 33.382812 74.28125 L 12.773438 49.78125 C 12.574219 49.550781 12.449219 49.28125 12.402344 48.980469 C 12.355469 48.675781 12.394531 48.382812 12.519531 48.101562 C 12.640625 47.820312 12.832031 47.59375 13.085938 47.421875 C 13.339844 47.25 13.617188 47.160156 13.925781 47.148438 L 64.84375 45.726562 C 65.371094 45.722656 65.8125 45.523438 66.15625 45.121094 L 113.675781 0.890625 C 113.941406 0.65625 114.253906 0.527344 114.605469 0.5 C 114.960938 0.46875 115.285156 0.550781 115.585938 0.742188 C 115.882812 0.933594 116.09375 1.195312 116.21875 1.527344 C 116.34375 1.859375 116.355469 2.195312 116.253906 2.535156 Z M 116.253906 2.535156 " fill-opacity="1" fill-rule="nonzero"/></g><g clip-path="url(#470dd74aae)"><path fill="#003b79" d="M 122.574219 2.535156 L 109.148438 43.585938 C 109.070312 43.828125 109.050781 44.070312 109.085938 44.320312 C 109.125 44.570312 109.21875 44.796875 109.363281 45 C 109.507812 45.207031 109.691406 45.367188 109.914062 45.488281 C 110.140625 45.605469 110.375 45.664062 110.628906 45.671875 L 342.523438 47.972656 C 342.734375 47.972656 342.9375 48.011719 343.132812 48.09375 C 343.324219 48.175781 343.496094 48.289062 343.648438 48.4375 C 343.796875 48.585938 343.910156 48.757812 343.992188 48.953125 C 344.070312 49.148438 344.113281 49.351562 344.113281 49.5625 C 344.113281 49.773438 344.070312 49.976562 343.992188 50.171875 C 343.910156 50.363281 343.796875 50.535156 343.648438 50.6875 C 343.496094 50.835938 343.324219 50.949219 343.128906 51.03125 C 342.9375 51.109375 342.734375 51.152344 342.523438 51.152344 L 98.242188 75.484375 C 97.964844 75.519531 97.710938 75.621094 97.488281 75.785156 C 97.261719 75.953125 97.09375 76.164062 96.980469 76.417969 L 81.796875 112.644531 C 81.695312 112.882812 81.546875 113.078125 81.347656 113.242188 C 81.152344 113.402344 80.929688 113.511719 80.679688 113.566406 C 80.429688 113.621094 80.179688 113.613281 79.933594 113.550781 C 79.6875 113.484375 79.46875 113.367188 79.277344 113.195312 L 57.738281 93.300781 C 57.519531 93.085938 57.261719 92.949219 56.964844 92.890625 C 56.667969 92.832031 56.375 92.855469 56.09375 92.96875 L 8.902344 111.878906 C 8.558594 112 8.214844 112.003906 7.867188 111.886719 C 7.519531 111.773438 7.246094 111.5625 7.046875 111.257812 C 6.84375 110.949219 6.757812 110.617188 6.789062 110.253906 C 6.816406 109.886719 6.957031 109.570312 7.203125 109.304688 L 39.707031 76.417969 C 39.839844 76.273438 39.941406 76.105469 40.011719 75.921875 C 40.082031 75.738281 40.117188 75.546875 40.117188 75.347656 C 40.117188 75.152344 40.082031 74.960938 40.011719 74.777344 C 39.941406 74.59375 39.839844 74.425781 39.707031 74.28125 L 19.097656 49.78125 C 18.894531 49.550781 18.773438 49.28125 18.726562 48.980469 C 18.679688 48.675781 18.71875 48.382812 18.839844 48.101562 C 18.964844 47.820312 19.152344 47.59375 19.40625 47.421875 C 19.660156 47.25 19.941406 47.160156 20.25 47.148438 L 71.164062 45.726562 C 71.695312 45.722656 72.132812 45.523438 72.480469 45.121094 L 120 0.890625 C 120.265625 0.65625 120.574219 0.527344 120.929688 0.5 C 121.28125 0.46875 121.609375 0.550781 121.90625 0.742188 C 122.207031 0.933594 122.417969 1.195312 122.542969 1.527344 C 122.664062 1.859375 122.675781 2.195312 122.574219 2.535156 Z M 122.574219 2.535156 " fill-opacity="1" fill-rule="nonzero"/></g><g transform="matrix(1, 0, 0, 1, 50, 45)"><g clip-path="url(#1c7141de7f)"><g clip-path="url(#2decc594e5)"><g fill="#000000" fill-opacity="1"><g transform="translate(2.84173, 33.618832)"><g><path d="M 14.347656 -1.136719 C 14.058594 -0.386719 13.65625 0.277344 13.136719 0.855469 C 12.605469 1.453125 11.976562 1.933594 11.246094 2.296875 L 8.953125 3.457031 L 7.070312 -0.253906 L 9.253906 3.292969 C 8.308594 3.871094 7.285156 4.164062 6.183594 4.164062 L -3.9375 4.164062 L 6.5625 -24.804688 L 37.171875 -24.804688 L 32.34375 -11.503906 L 15.1875 -11.503906 L 15.1875 -15.664062 L 19.109375 -14.261719 L 18.03125 -11.25 L 14.109375 -12.652344 L 14.109375 -16.8125 L 32.980469 -16.8125 L 28.210938 -3.828125 L 12.398438 -3.828125 L 12.398438 -7.992188 L 16.3125 -6.578125 L 14.378906 -1.21875 Z M 6.550781 -4.046875 L 9.476562 -12.152344 L 25.304688 -12.152344 L 25.304688 -7.992188 L 21.398438 -9.425781 L 23.109375 -14.085938 L 27.015625 -12.652344 L 27.015625 -8.488281 L 8.199219 -8.488281 L 12.257812 -19.828125 L 29.425781 -19.828125 L 29.425781 -15.664062 L 25.515625 -17.085938 L 27.320312 -22.0625 L 31.234375 -20.644531 L 31.234375 -16.480469 L 9.480469 -16.480469 L 9.480469 -20.644531 L 13.394531 -19.222656 L 5.910156 1.417969 L 1.996094 0 L 1.996094 -4.164062 L 6.183594 -4.164062 C 5.714844 -4.164062 5.285156 -4.039062 4.890625 -3.796875 L 5.035156 -3.886719 L 7.523438 -5.148438 C 7.304688 -5.039062 7.109375 -4.886719 6.933594 -4.695312 C 6.773438 -4.515625 6.65625 -4.324219 6.578125 -4.125 Z M 6.550781 -4.046875 "/></g></g></g></g><g fill="#000000" fill-opacity="1"><g transform="translate(26.708329, 33.618832)"><g><path d="M 14.929688 -1.085938 C 14.359375 0.347656 13.402344 1.441406 12.066406 2.195312 L 11.984375 2.242188 L 9.585938 3.457031 L 7.707031 -0.253906 L 9.886719 3.292969 C 8.941406 3.871094 7.910156 4.164062 6.785156 4.164062 L -3.273438 4.164062 L 5.28125 -19.429688 C 5.589844 -20.230469 6.003906 -20.917969 6.523438 -21.5 C 7.054688 -22.09375 7.683594 -22.574219 8.414062 -22.9375 L 10.65625 -24.089844 L 12.558594 -20.390625 L 10.375 -23.933594 C 11.320312 -24.515625 12.351562 -24.804688 13.476562 -24.804688 L 23.535156 -24.804688 L 14.957031 -1.148438 Z M 7.203125 -4.175781 L 11.066406 -2.632812 L 7.152344 -4.050781 L 13.6875 -22.0625 L 17.597656 -20.644531 L 17.597656 -16.480469 L 13.476562 -16.480469 C 13.921875 -16.480469 14.34375 -16.601562 14.738281 -16.84375 L 14.601562 -16.761719 L 12.136719 -15.492188 C 12.355469 -15.601562 12.550781 -15.753906 12.726562 -15.949219 C 12.886719 -16.128906 13.011719 -16.339844 13.109375 -16.59375 L 6.578125 1.417969 L 2.664062 0 L 2.664062 -4.164062 L 6.785156 -4.164062 C 6.339844 -4.164062 5.917969 -4.039062 5.523438 -3.796875 L 5.671875 -3.886719 L 8.136719 -5.140625 L 10.019531 -1.425781 L 7.972656 -5.050781 C 7.609375 -4.84375 7.351562 -4.554688 7.203125 -4.175781 Z M 7.203125 -4.175781 "/></g></g></g><g fill="#000000" fill-opacity="1"><g transform="translate(38.276816, 33.618832)"><g><path d="M 20.972656 -19.21875 L 15.832031 -5.109375 C 15.96875 -5.492188 16.019531 -5.890625 15.980469 -6.300781 C 15.933594 -6.851562 15.753906 -7.351562 15.445312 -7.800781 C 15.121094 -8.265625 14.703125 -8.621094 14.1875 -8.863281 C 13.789062 -9.046875 13.394531 -9.140625 13 -9.140625 L 30.039062 -9.140625 L 25.207031 4.164062 L 8.5625 4.164062 C 7.851562 4.164062 7.179688 4.066406 6.542969 3.871094 C 5.632812 3.59375 4.851562 3.128906 4.191406 2.46875 L 7.132812 -0.476562 L 4.515625 2.761719 L 1.523438 0.339844 L 1.371094 0.183594 C 0.425781 -0.761719 -0.132812 -1.910156 -0.308594 -3.261719 C -0.441406 -4.300781 -0.332031 -5.34375 0.015625 -6.390625 L 0.03125 -6.441406 L 6.691406 -24.804688 L 23.003906 -24.804688 Z M 13.148438 -22.066406 L 17.058594 -20.644531 L 17.058594 -16.480469 L 9.609375 -16.480469 L 9.609375 -20.644531 L 13.519531 -19.222656 L 7.875 -3.65625 L 3.964844 -5.074219 L 7.914062 -3.757812 C 7.964844 -3.914062 7.976562 -4.101562 7.949219 -4.320312 C 7.882812 -4.847656 7.652344 -5.308594 7.253906 -5.703125 L 4.3125 -2.757812 L 6.929688 -5.996094 L 9.921875 -3.574219 L 10.078125 -3.417969 C 9.757812 -3.738281 9.386719 -3.964844 8.964844 -4.09375 C 8.8125 -4.140625 8.679688 -4.164062 8.5625 -4.164062 L 22.292969 -4.164062 L 22.292969 0 L 18.378906 -1.421875 L 20.1875 -6.398438 L 24.097656 -4.976562 L 24.097656 -0.816406 L 13 -0.816406 C 12.160156 -0.816406 11.382812 -0.984375 10.660156 -1.324219 C 9.8125 -1.71875 9.125 -2.300781 8.589844 -3.074219 C 8.070312 -3.832031 7.769531 -4.667969 7.6875 -5.582031 C 7.621094 -6.359375 7.730469 -7.148438 8.011719 -7.957031 Z M 13.148438 -22.066406 "/></g></g></g><g fill="#000000" fill-opacity="1"><g transform="translate(60.685378, 33.618832)"><g><path d="M 19.042969 -14.261719 L 17.964844 -11.25 L 14.046875 -12.652344 L 14.046875 -16.8125 L 33.390625 -16.8125 L 28.621094 -3.828125 L 12.335938 -3.828125 L 12.335938 -7.992188 L 16.238281 -6.546875 L 15.699219 -5.089844 C 15.839844 -5.484375 15.890625 -5.890625 15.855469 -6.300781 C 15.808594 -6.851562 15.628906 -7.351562 15.316406 -7.800781 C 14.996094 -8.265625 14.578125 -8.621094 14.058594 -8.863281 C 13.664062 -9.046875 13.269531 -9.140625 12.875 -9.140625 L 31.910156 -9.140625 L 27.078125 4.164062 L 8.433594 4.164062 C 7.65625 4.164062 6.933594 4.050781 6.269531 3.828125 C 5.363281 3.527344 4.59375 3.039062 3.964844 2.363281 L 7.007812 -0.476562 L 4.390625 2.761719 L 1.398438 0.339844 L 1.242188 0.183594 C 0.296875 -0.761719 -0.261719 -1.910156 -0.433594 -3.261719 C -0.566406 -4.300781 -0.460938 -5.34375 -0.113281 -6.390625 L -0.09375 -6.441406 L 6.5625 -24.804688 L 37.585938 -24.804688 L 32.753906 -11.503906 L 15.125 -11.503906 L 15.125 -15.664062 Z M 12.195312 -19.828125 L 29.839844 -19.828125 L 29.839844 -15.664062 L 25.925781 -17.085938 L 27.734375 -22.0625 L 31.644531 -20.644531 L 31.644531 -16.480469 L 9.480469 -16.480469 L 9.480469 -20.644531 L 13.394531 -19.222656 L 7.75 -3.65625 L 3.835938 -5.074219 L 7.785156 -3.757812 C 7.839844 -3.914062 7.851562 -4.101562 7.824219 -4.320312 C 7.753906 -4.847656 7.523438 -5.308594 7.128906 -5.703125 L 4.1875 -2.757812 L 6.804688 -5.996094 L 9.851562 -3.527344 L 10.050781 -3.316406 C 9.71875 -3.671875 9.335938 -3.921875 8.902344 -4.066406 C 8.714844 -4.128906 8.558594 -4.164062 8.433594 -4.164062 L 24.164062 -4.164062 L 24.164062 0 L 20.25 -1.421875 L 22.058594 -6.398438 L 25.96875 -4.976562 L 25.96875 -0.816406 L 12.875 -0.816406 C 12.035156 -0.816406 11.253906 -0.984375 10.53125 -1.324219 C 9.6875 -1.71875 8.996094 -2.300781 8.464844 -3.074219 C 7.941406 -3.832031 7.640625 -4.667969 7.5625 -5.582031 C 7.496094 -6.359375 7.605469 -7.15625 7.890625 -7.976562 L 9.4375 -12.152344 L 25.714844 -12.152344 L 25.714844 -7.992188 L 21.808594 -9.425781 L 23.523438 -14.085938 L 27.429688 -12.652344 L 27.429688 -8.488281 L 8.136719 -8.488281 L 11.207031 -17.066406 Z M 12.195312 -19.828125 "/></g></g></g><g fill="#000000" fill-opacity="1"><g transform="translate(85.40776, 33.618832)"><g/></g></g><g fill="#000000" fill-opacity="1"><g transform="translate(97.515798, 33.618832)"><g><path d="M 9.449219 4.164062 L -3.9375 4.164062 L 6.5625 -24.804688 L 25.460938 -24.804688 C 28.949219 -24.804688 31.613281 -23.941406 33.449219 -22.21875 C 34.089844 -21.617188 34.59375 -20.925781 34.96875 -20.144531 C 35.324219 -19.394531 35.546875 -18.589844 35.628906 -17.726562 C 35.765625 -16.347656 35.542969 -14.851562 34.957031 -13.238281 L 33.835938 -10.214844 C 33.625 -9.640625 33.339844 -9.101562 32.976562 -8.597656 C 32.707031 -8.226562 32.378906 -7.847656 31.988281 -7.457031 L 31.757812 -7.226562 L 28.929688 -5.164062 C 27.457031 -4.0625 25.921875 -3.511719 24.320312 -3.511719 L 22.324219 -3.511719 L 22.324219 -7.671875 L 25.941406 -9.730469 L 31.105469 -0.632812 L 29.507812 4.164062 L 14.601562 4.164062 L 9.191406 -8.085938 L 13 -9.765625 L 16.914062 -8.34375 L 12.363281 4.164062 Z M 9.449219 -4.164062 L 9.449219 0 L 5.539062 -1.421875 L 12.625 -20.917969 L 21.121094 -1.679688 L 17.3125 0 L 17.3125 -4.164062 L 26.507812 -4.164062 L 26.507812 0 L 22.558594 -1.316406 L 22.625 -1.507812 L 26.574219 -0.191406 L 22.953125 1.863281 L 15.171875 -11.835938 L 24.320312 -11.835938 C 24.128906 -11.835938 23.964844 -11.808594 23.832031 -11.757812 L 23.828125 -11.757812 C 23.871094 -11.78125 23.9375 -11.828125 24.027344 -11.894531 L 26.59375 -13.765625 L 29.046875 -10.402344 L 26.101562 -13.34375 C 26.152344 -13.394531 26.195312 -13.4375 26.226562 -13.472656 C 26.136719 -13.347656 26.074219 -13.230469 26.03125 -13.121094 L 27.128906 -16.0625 C 27.226562 -16.335938 27.292969 -16.574219 27.324219 -16.769531 C 27.335938 -16.828125 27.339844 -16.875 27.34375 -16.917969 L 27.34375 -16.914062 C 27.355469 -16.808594 27.390625 -16.691406 27.453125 -16.5625 C 27.53125 -16.402344 27.628906 -16.265625 27.75 -16.148438 L 27.746094 -16.144531 C 27.660156 -16.191406 27.546875 -16.234375 27.402344 -16.273438 C 26.917969 -16.410156 26.269531 -16.480469 25.460938 -16.480469 L 9.480469 -16.480469 L 9.480469 -20.644531 L 13.394531 -19.222656 L 5.910156 1.417969 L 1.996094 0 L 1.996094 -4.164062 Z M 19.039062 -14.253906 L 17.359375 -9.589844 L 13.445312 -11.003906 L 13.445312 -15.164062 L 20.609375 -15.164062 C 20.339844 -15.164062 20.085938 -15.121094 19.839844 -15.03125 C 19.671875 -14.96875 19.53125 -14.894531 19.414062 -14.808594 C 19.339844 -14.753906 19.261719 -14.675781 19.183594 -14.574219 C 19.046875 -14.40625 18.941406 -14.210938 18.863281 -13.996094 L 19.394531 -15.535156 L 19.417969 -15.59375 C 19.296875 -15.28125 19.246094 -14.929688 19.261719 -14.542969 C 19.289062 -13.941406 19.472656 -13.386719 19.816406 -12.882812 C 20.136719 -12.40625 20.5625 -12.042969 21.089844 -11.792969 C 21.5 -11.597656 21.910156 -11.503906 22.324219 -11.503906 L 15.125 -11.503906 L 15.125 -15.664062 Z M 12.203125 -19.828125 L 22.324219 -19.828125 C 23.160156 -19.828125 23.9375 -19.65625 24.660156 -19.3125 C 25.496094 -18.914062 26.179688 -18.332031 26.703125 -17.558594 C 27.246094 -16.757812 27.539062 -15.871094 27.578125 -14.898438 C 27.613281 -14.140625 27.484375 -13.386719 27.195312 -12.628906 L 23.304688 -14.109375 L 27.238281 -12.746094 L 26.671875 -11.117188 C 26.242188 -9.949219 25.488281 -8.957031 24.410156 -8.148438 C 23.246094 -7.277344 21.980469 -6.839844 20.609375 -6.839844 L 7.519531 -6.839844 L 11.210938 -17.074219 Z M 12.203125 -19.828125 "/></g></g></g><g fill="#000000" fill-opacity="1"><g transform="translate(123.252463, 33.618832)"><g><path d="M 19.042969 -14.261719 L 17.964844 -11.25 L 14.046875 -12.652344 L 14.046875 -16.8125 L 33.390625 -16.8125 L 28.621094 -3.828125 L 12.335938 -3.828125 L 12.335938 -7.992188 L 16.238281 -6.546875 L 15.699219 -5.089844 C 15.839844 -5.484375 15.890625 -5.890625 15.855469 -6.300781 C 15.808594 -6.851562 15.628906 -7.351562 15.316406 -7.800781 C 14.996094 -8.265625 14.578125 -8.621094 14.058594 -8.863281 C 13.664062 -9.046875 13.269531 -9.140625 12.875 -9.140625 L 31.910156 -9.140625 L 27.078125 4.164062 L 8.433594 4.164062 C 7.65625 4.164062 6.933594 4.050781 6.269531 3.828125 C 5.363281 3.527344 4.59375 3.039062 3.964844 2.363281 L 7.007812 -0.476562 L 4.390625 2.761719 L 1.398438 0.339844 L 1.242188 0.183594 C 0.296875 -0.761719 -0.261719 -1.910156 -0.433594 -3.261719 C -0.566406 -4.300781 -0.460938 -5.34375 -0.113281 -6.390625 L -0.09375 -6.441406 L 6.5625 -24.804688 L 37.585938 -24.804688 L 32.753906 -11.503906 L 15.125 -11.503906 L 15.125 -15.664062 Z M 12.195312 -19.828125 L 29.839844 -19.828125 L 29.839844 -15.664062 L 25.925781 -17.085938 L 27.734375 -22.0625 L 31.644531 -20.644531 L 31.644531 -16.480469 L 9.480469 -16.480469 L 9.480469 -20.644531 L 13.394531 -19.222656 L 7.75 -3.65625 L 3.835938 -5.074219 L 7.785156 -3.757812 C 7.839844 -3.914062 7.851562 -4.101562 7.824219 -4.320312 C 7.753906 -4.847656 7.523438 -5.308594 7.128906 -5.703125 L 4.1875 -2.757812 L 6.804688 -5.996094 L 9.851562 -3.527344 L 10.050781 -3.316406 C 9.71875 -3.671875 9.335938 -3.921875 8.902344 -4.066406 C 8.714844 -4.128906 8.558594 -4.164062 8.433594 -4.164062 L 24.164062 -4.164062 L 24.164062 0 L 20.25 -1.421875 L 22.058594 -6.398438 L 25.96875 -4.976562 L 25.96875 -0.816406 L 12.875 -0.816406 C 12.035156 -0.816406 11.253906 -0.984375 10.53125 -1.324219 C 9.6875 -1.71875 8.996094 -2.300781 8.464844 -3.074219 C 7.941406 -3.832031 7.640625 -4.667969 7.5625 -5.582031 C 7.496094 -6.359375 7.605469 -7.15625 7.890625 -7.976562 L 9.4375 -12.152344 L 25.714844 -12.152344 L 25.714844 -7.992188 L 21.808594 -9.425781 L 23.523438 -14.085938 L 27.429688 -12.652344 L 27.429688 -8.488281 L 8.136719 -8.488281 L 11.207031 -17.066406 Z M 12.195312 -19.828125 "/></g></g></g><g fill="#000000" fill-opacity="1"><g transform="translate(147.974845, 33.618832)"><g><path d="M 9.449219 4.164062 L -3.9375 4.164062 L 6.5625 -24.804688 L 18.730469 -24.804688 L 26.636719 -10.40625 L 22.988281 -8.402344 L 19.078125 -9.820312 L 24.511719 -24.804688 L 40.816406 -24.804688 L 32.261719 -1.210938 C 31.953125 -0.414062 31.539062 0.277344 31.023438 0.855469 C 30.488281 1.453125 29.859375 1.933594 29.132812 2.296875 L 26.835938 3.457031 L 24.957031 -0.253906 L 27.136719 3.292969 C 26.191406 3.871094 25.167969 4.164062 24.066406 4.164062 L 18.234375 4.164062 L 10.113281 -9.621094 L 13.699219 -11.734375 L 17.613281 -10.316406 L 12.367188 4.164062 Z M 9.449219 -4.164062 L 9.449219 0 L 5.535156 -1.417969 L 12.796875 -21.464844 L 24.195312 -2.113281 L 20.609375 0 L 20.609375 -4.164062 L 24.066406 -4.164062 C 23.597656 -4.164062 23.167969 -4.039062 22.773438 -3.796875 L 22.921875 -3.886719 L 25.410156 -5.148438 C 25.1875 -5.039062 24.992188 -4.886719 24.816406 -4.695312 C 24.660156 -4.515625 24.53125 -4.300781 24.433594 -4.050781 L 30.96875 -22.0625 L 34.878906 -20.644531 L 34.878906 -16.480469 L 27.429688 -16.480469 L 27.429688 -20.644531 L 31.339844 -19.222656 L 23.765625 1.660156 L 12.617188 -18.640625 L 16.265625 -20.644531 L 16.265625 -16.480469 L 9.480469 -16.480469 L 9.480469 -20.644531 L 13.394531 -19.222656 L 5.910156 1.417969 L 1.996094 0 L 1.996094 -4.164062 Z M 9.449219 -4.164062 "/></g></g></g><g fill="#000000" fill-opacity="1"><g transform="translate(176.152107, 33.618832)"><g><path d="M 26.636719 4.164062 L 13.257812 4.164062 L 16.664062 -5.28125 L 20.578125 -3.867188 L 20.578125 0.292969 L 11.65625 0.292969 L 8.664062 -2.699219 L 11.605469 -5.644531 L 15.34375 -3.816406 L 11.445312 4.164062 L -5.335938 4.164062 L 5.203125 -17.398438 L 8.941406 -15.570312 L 5.125 -17.230469 C 5.5 -18.089844 5.992188 -18.882812 6.605469 -19.605469 C 7.257812 -20.375 8.015625 -21.015625 8.886719 -21.53125 L 9.019531 -21.609375 L 13.664062 -23.902344 L 15.507812 -20.167969 L 13.363281 -23.734375 C 14.550781 -24.449219 15.835938 -24.804688 17.21875 -24.804688 L 26.699219 -24.804688 C 27.40625 -24.804688 28.082031 -24.707031 28.71875 -24.515625 C 29.722656 -24.207031 30.558594 -23.671875 31.226562 -22.90625 L 28.09375 -20.167969 L 30.921875 -23.21875 L 34.378906 -20.015625 C 35.386719 -19.082031 35.992188 -17.933594 36.203125 -16.566406 C 36.375 -15.453125 36.253906 -14.328125 35.84375 -13.195312 L 29.554688 4.164062 Z M 26.636719 -4.164062 L 26.636719 0 L 22.722656 -1.417969 L 28.019531 -16.039062 C 27.945312 -15.835938 27.929688 -15.589844 27.976562 -15.300781 C 28.058594 -14.757812 28.308594 -14.296875 28.722656 -13.910156 L 25.105469 -17.261719 L 24.960938 -17.425781 C 25.335938 -17 25.78125 -16.707031 26.296875 -16.550781 C 26.449219 -16.503906 26.582031 -16.480469 26.699219 -16.480469 L 17.21875 -16.480469 C 17.375 -16.480469 17.515625 -16.519531 17.648438 -16.597656 L 17.5 -16.507812 L 12.84375 -14.214844 L 11.003906 -17.949219 L 13.121094 -14.363281 C 13.058594 -14.328125 13.003906 -14.28125 12.960938 -14.226562 C 12.875 -14.128906 12.808594 -14.023438 12.757812 -13.910156 L 12.722656 -13.824219 L 5.070312 1.828125 L 1.332031 0 L 1.332031 -4.164062 L 8.847656 -4.164062 L 8.847656 0 L 5.109375 -1.828125 L 10.425781 -12.710938 L 16.324219 -6.8125 L 13.382812 -3.867188 L 13.382812 -8.03125 L 26.503906 -8.03125 L 23.097656 1.410156 L 19.183594 0 L 19.183594 -4.164062 Z M 19.609375 -12.25 L 16.753906 -6.542969 L 13.03125 -8.402344 L 13.03125 -12.566406 L 22.226562 -12.566406 L 22.226562 -8.402344 L 18.3125 -9.816406 L 20.398438 -15.589844 L 20.425781 -15.65625 C 20.28125 -15.292969 20.21875 -14.894531 20.246094 -14.460938 C 20.28125 -13.867188 20.464844 -13.328125 20.800781 -12.839844 C 21.121094 -12.375 21.539062 -12.019531 22.058594 -11.777344 C 22.453125 -11.59375 22.847656 -11.503906 23.242188 -11.503906 L 18.105469 -11.503906 C 18.371094 -11.503906 18.628906 -11.546875 18.875 -11.636719 C 19.0625 -11.703125 19.226562 -11.792969 19.363281 -11.894531 C 19.425781 -11.945312 19.484375 -12.015625 19.535156 -12.105469 L 15.886719 -14.109375 Z M 12.164062 -15.972656 L 12.199219 -16.046875 L 12.238281 -16.117188 C 12.753906 -17.050781 13.445312 -17.851562 14.3125 -18.511719 C 15.460938 -19.390625 16.722656 -19.828125 18.105469 -19.828125 L 23.242188 -19.828125 C 24.082031 -19.828125 24.863281 -19.65625 25.585938 -19.320312 C 26.429688 -18.925781 27.121094 -18.339844 27.652344 -17.566406 C 28.199219 -16.773438 28.5 -15.898438 28.554688 -14.941406 C 28.601562 -14.144531 28.46875 -13.351562 28.152344 -12.566406 L 24.289062 -14.109375 L 28.203125 -12.695312 L 25.152344 -4.242188 L 6.296875 -4.242188 Z M 12.164062 -15.972656 "/></g></g></g><g fill="#000000" fill-opacity="1"><g transform="translate(203.56867, 33.618832)"><g><path d="M 16.773438 4.164062 L 10.257812 4.164062 L 9.414062 -11.734375 L 13.570312 -11.953125 L 17.539062 -10.695312 L 16.054688 -6.019531 L 12.367188 4.164062 L -3.9375 4.164062 L 6.5625 -24.804688 L 21.597656 -24.804688 L 22.296875 -7.460938 L 18.136719 -7.292969 L 14.832031 -9.820312 L 26.292969 -24.804688 L 42.402344 -24.804688 L 31.902344 4.164062 L 15.597656 4.164062 L 20.3125 -8.863281 L 22.25 -13.546875 L 26.097656 -11.953125 L 29.378906 -9.394531 L 18.804688 4.164062 Z M 16.773438 -4.164062 L 16.773438 0 L 13.492188 -2.558594 L 22.816406 -14.515625 L 29.941406 -10.363281 L 28.039062 -5.765625 L 24.195312 -7.355469 L 28.109375 -5.941406 L 25.445312 1.417969 L 21.53125 0 L 21.53125 -4.164062 L 28.980469 -4.164062 L 28.980469 0 L 25.070312 -1.417969 L 32.550781 -22.0625 L 36.464844 -20.644531 L 36.464844 -16.480469 L 28.347656 -16.480469 L 28.347656 -20.644531 L 31.652344 -18.113281 L 14.445312 4.386719 L 13.441406 -20.476562 L 17.597656 -20.644531 L 17.597656 -16.480469 L 9.480469 -16.480469 L 9.480469 -20.644531 L 13.394531 -19.222656 L 5.910156 1.417969 L 1.996094 0 L 1.996094 -4.164062 L 9.449219 -4.164062 L 9.449219 0 L 5.535156 -1.417969 L 8.199219 -8.773438 L 12.113281 -7.355469 L 8.144531 -8.613281 L 9.605469 -13.214844 L 17.726562 -12.175781 L 18.363281 -0.21875 L 14.207031 0 L 14.207031 -4.164062 Z M 16.773438 -4.164062 "/></g></g></g><g fill="#000000" fill-opacity="1"><g transform="translate(233.330747, 33.618832)"><g><path d="M 19.042969 -14.261719 L 17.964844 -11.25 L 14.046875 -12.652344 L 14.046875 -16.8125 L 33.390625 -16.8125 L 28.621094 -3.828125 L 12.335938 -3.828125 L 12.335938 -7.992188 L 16.238281 -6.546875 L 15.699219 -5.089844 C 15.839844 -5.484375 15.890625 -5.890625 15.855469 -6.300781 C 15.808594 -6.851562 15.628906 -7.351562 15.316406 -7.800781 C 14.996094 -8.265625 14.578125 -8.621094 14.058594 -8.863281 C 13.664062 -9.046875 13.269531 -9.140625 12.875 -9.140625 L 31.910156 -9.140625 L 27.078125 4.164062 L 8.433594 4.164062 C 7.65625 4.164062 6.933594 4.050781 6.269531 3.828125 C 5.363281 3.527344 4.59375 3.039062 3.964844 2.363281 L 7.007812 -0.476562 L 4.390625 2.761719 L 1.398438 0.339844 L 1.242188 0.183594 C 0.296875 -0.761719 -0.261719 -1.910156 -0.433594 -3.261719 C -0.566406 -4.300781 -0.460938 -5.34375 -0.113281 -6.390625 L -0.09375 -6.441406 L 6.5625 -24.804688 L 37.585938 -24.804688 L 32.753906 -11.503906 L 15.125 -11.503906 L 15.125 -15.664062 Z M 12.195312 -19.828125 L 29.839844 -19.828125 L 29.839844 -15.664062 L 25.925781 -17.085938 L 27.734375 -22.0625 L 31.644531 -20.644531 L 31.644531 -16.480469 L 9.480469 -16.480469 L 9.480469 -20.644531 L 13.394531 -19.222656 L 7.75 -3.65625 L 3.835938 -5.074219 L 7.785156 -3.757812 C 7.839844 -3.914062 7.851562 -4.101562 7.824219 -4.320312 C 7.753906 -4.847656 7.523438 -5.308594 7.128906 -5.703125 L 4.1875 -2.757812 L 6.804688 -5.996094 L 9.851562 -3.527344 L 10.050781 -3.316406 C 9.71875 -3.671875 9.335938 -3.921875 8.902344 -4.066406 C 8.714844 -4.128906 8.558594 -4.164062 8.433594 -4.164062 L 24.164062 -4.164062 L 24.164062 0 L 20.25 -1.421875 L 22.058594 -6.398438 L 25.96875 -4.976562 L 25.96875 -0.816406 L 12.875 -0.816406 C 12.035156 -0.816406 11.253906 -0.984375 10.53125 -1.324219 C 9.6875 -1.71875 8.996094 -2.300781 8.464844 -3.074219 C 7.941406 -3.832031 7.640625 -4.667969 7.5625 -5.582031 C 7.496094 -6.359375 7.605469 -7.15625 7.890625 -7.976562 L 9.4375 -12.152344 L 25.714844 -12.152344 L 25.714844 -7.992188 L 21.808594 -9.425781 L 23.523438 -14.085938 L 27.429688 -12.652344 L 27.429688 -8.488281 L 8.136719 -8.488281 L 11.207031 -17.066406 Z M 12.195312 -19.828125 "/></g></g></g><g fill="#000000" fill-opacity="1"><g transform="translate(258.053129, 33.618832)"><g><path d="M 9.449219 4.164062 L -3.9375 4.164062 L 6.5625 -24.804688 L 25.460938 -24.804688 C 28.949219 -24.804688 31.613281 -23.941406 33.449219 -22.21875 C 34.089844 -21.617188 34.59375 -20.925781 34.96875 -20.144531 C 35.324219 -19.394531 35.546875 -18.589844 35.628906 -17.726562 C 35.765625 -16.347656 35.542969 -14.851562 34.957031 -13.238281 L 33.835938 -10.214844 C 33.625 -9.640625 33.339844 -9.101562 32.976562 -8.597656 C 32.707031 -8.226562 32.378906 -7.847656 31.988281 -7.457031 L 31.757812 -7.226562 L 28.929688 -5.164062 C 27.457031 -4.0625 25.921875 -3.511719 24.320312 -3.511719 L 22.324219 -3.511719 L 22.324219 -7.671875 L 25.941406 -9.730469 L 31.105469 -0.632812 L 29.507812 4.164062 L 14.601562 4.164062 L 9.191406 -8.085938 L 13 -9.765625 L 16.914062 -8.34375 L 12.363281 4.164062 Z M 9.449219 -4.164062 L 9.449219 0 L 5.539062 -1.421875 L 12.625 -20.917969 L 21.121094 -1.679688 L 17.3125 0 L 17.3125 -4.164062 L 26.507812 -4.164062 L 26.507812 0 L 22.558594 -1.316406 L 22.625 -1.507812 L 26.574219 -0.191406 L 22.953125 1.863281 L 15.171875 -11.835938 L 24.320312 -11.835938 C 24.128906 -11.835938 23.964844 -11.808594 23.832031 -11.757812 L 23.828125 -11.757812 C 23.871094 -11.78125 23.9375 -11.828125 24.027344 -11.894531 L 26.59375 -13.765625 L 29.046875 -10.402344 L 26.101562 -13.34375 C 26.152344 -13.394531 26.195312 -13.4375 26.226562 -13.472656 C 26.136719 -13.347656 26.074219 -13.230469 26.03125 -13.121094 L 27.128906 -16.0625 C 27.226562 -16.335938 27.292969 -16.574219 27.324219 -16.769531 C 27.335938 -16.828125 27.339844 -16.875 27.34375 -16.917969 L 27.34375 -16.914062 C 27.355469 -16.808594 27.390625 -16.691406 27.453125 -16.5625 C 27.53125 -16.402344 27.628906 -16.265625 27.75 -16.148438 L 27.746094 -16.144531 C 27.660156 -16.191406 27.546875 -16.234375 27.402344 -16.273438 C 26.917969 -16.410156 26.269531 -16.480469 25.460938 -16.480469 L 9.480469 -16.480469 L 9.480469 -20.644531 L 13.394531 -19.222656 L 5.910156 1.417969 L 1.996094 0 L 1.996094 -4.164062 Z M 19.039062 -14.253906 L 17.359375 -9.589844 L 13.445312 -11.003906 L 13.445312 -15.164062 L 20.609375 -15.164062 C 20.339844 -15.164062 20.085938 -15.121094 19.839844 -15.03125 C 19.671875 -14.96875 19.53125 -14.894531 19.414062 -14.808594 C 19.339844 -14.753906 19.261719 -14.675781 19.183594 -14.574219 C 19.046875 -14.40625 18.941406 -14.210938 18.863281 -13.996094 L 19.394531 -15.535156 L 19.417969 -15.59375 C 19.296875 -15.28125 19.246094 -14.929688 19.261719 -14.542969 C 19.289062 -13.941406 19.472656 -13.386719 19.816406 -12.882812 C 20.136719 -12.40625 20.5625 -12.042969 21.089844 -11.792969 C 21.5 -11.597656 21.910156 -11.503906 22.324219 -11.503906 L 15.125 -11.503906 L 15.125 -15.664062 Z M 12.203125 -19.828125 L 22.324219 -19.828125 C 23.160156 -19.828125 23.9375 -19.65625 24.660156 -19.3125 C 25.496094 -18.914062 26.179688 -18.332031 26.703125 -17.558594 C 27.246094 -16.757812 27.539062 -15.871094 27.578125 -14.898438 C 27.613281 -14.140625 27.484375 -13.386719 27.195312 -12.628906 L 23.304688 -14.109375 L 27.238281 -12.746094 L 26.671875 -11.117188 C 26.242188 -9.949219 25.488281 -8.957031 24.410156 -8.148438 C 23.246094 -7.277344 21.980469 -6.839844 20.609375 -6.839844 L 7.519531 -6.839844 L 11.210938 -17.074219 Z M 12.203125 -19.828125 "/></g></g></g><g fill="#b5ff00" fill-opacity="1"><g transform="translate(2.84173, 33.618832)"><g><path d="M 10.46875 -2.625 C 10.25 -2.082031 9.890625 -1.679688 9.390625 -1.421875 L 7.0625 -0.25 C 6.789062 -0.0820312 6.5 0 6.1875 0 L 2 0 L 9.484375 -20.640625 L 31.234375 -20.640625 L 29.421875 -15.65625 L 15.1875 -15.65625 L 14.109375 -12.65625 L 27.015625 -12.65625 L 25.296875 -7.984375 L 12.390625 -7.984375 Z M 10.46875 -2.625 "/></g></g></g><g fill="#b5ff00" fill-opacity="1"><g transform="translate(26.708329, 33.618832)"><g><path d="M 11.0625 -2.625 C 10.851562 -2.101562 10.503906 -1.703125 10.015625 -1.421875 L 7.703125 -0.25 C 7.429688 -0.0820312 7.125 0 6.78125 0 L 2.65625 0 L 9.1875 -18 C 9.40625 -18.550781 9.765625 -18.957031 10.265625 -19.21875 L 12.546875 -20.390625 C 12.828125 -20.554688 13.132812 -20.640625 13.46875 -20.640625 L 17.59375 -20.640625 Z M 11.0625 -2.625 "/></g></g></g><g fill="#b5ff00" fill-opacity="1"><g transform="translate(38.276816, 33.618832)"><g><path d="M 17.0625 -20.640625 L 11.921875 -6.53125 C 11.773438 -6.101562 11.804688 -5.738281 12.015625 -5.4375 C 12.222656 -5.132812 12.550781 -4.984375 13 -4.984375 L 24.09375 -4.984375 L 22.28125 0 L 8.5625 0 C 8.257812 0 7.988281 -0.0351562 7.75 -0.109375 C 7.507812 -0.179688 7.304688 -0.300781 7.140625 -0.46875 L 4.3125 -2.765625 C 4.039062 -3.035156 3.875 -3.375 3.8125 -3.78125 C 3.757812 -4.195312 3.8125 -4.628906 3.96875 -5.078125 L 9.609375 -20.640625 Z M 17.0625 -20.640625 "/></g></g></g><g fill="#b5ff00" fill-opacity="1"><g transform="translate(60.685378, 33.618832)"><g><path d="M 15.125 -15.65625 L 14.046875 -12.65625 L 27.421875 -12.65625 L 25.71875 -7.984375 L 12.328125 -7.984375 L 11.796875 -6.53125 C 11.648438 -6.101562 11.679688 -5.738281 11.890625 -5.4375 C 12.097656 -5.132812 12.425781 -4.984375 12.875 -4.984375 L 25.96875 -4.984375 L 24.15625 0 L 8.4375 0 C 7.78125 0 7.300781 -0.15625 7 -0.46875 L 4.1875 -2.765625 C 3.90625 -3.035156 3.738281 -3.375 3.6875 -3.78125 C 3.632812 -4.195312 3.6875 -4.628906 3.84375 -5.078125 L 9.484375 -20.640625 L 31.640625 -20.640625 L 29.828125 -15.65625 Z M 15.125 -15.65625 "/></g></g></g><g fill="#b5ff00" fill-opacity="1"><g transform="translate(85.40776, 33.618832)"><g/></g></g><g fill="#b5ff00" fill-opacity="1"><g transform="translate(97.515798, 33.618832)"><g><path d="M 9.453125 0 L 2 0 L 9.484375 -20.640625 L 25.453125 -20.640625 C 27.847656 -20.640625 29.5625 -20.148438 30.59375 -19.171875 C 31.625 -18.203125 31.769531 -16.691406 31.03125 -14.640625 L 29.921875 -11.671875 C 29.835938 -11.429688 29.726562 -11.21875 29.59375 -11.03125 C 29.457031 -10.84375 29.273438 -10.632812 29.046875 -10.40625 L 26.46875 -8.53125 C 25.707031 -7.957031 24.988281 -7.671875 24.3125 -7.671875 L 22.3125 -7.671875 L 26.5625 -0.1875 L 26.5 0 L 17.3125 0 L 13 -9.765625 Z M 15.125 -15.65625 L 13.4375 -11 L 20.609375 -11 C 21.046875 -11 21.476562 -11.15625 21.90625 -11.46875 C 22.332031 -11.789062 22.617188 -12.148438 22.765625 -12.546875 L 23.296875 -14.109375 C 23.472656 -14.554688 23.457031 -14.925781 23.25 -15.21875 C 23.050781 -15.507812 22.738281 -15.65625 22.3125 -15.65625 Z M 15.125 -15.65625 "/></g></g></g><g fill="#b5ff00" fill-opacity="1"><g transform="translate(123.252463, 33.618832)"><g><path d="M 15.125 -15.65625 L 14.046875 -12.65625 L 27.421875 -12.65625 L 25.71875 -7.984375 L 12.328125 -7.984375 L 11.796875 -6.53125 C 11.648438 -6.101562 11.679688 -5.738281 11.890625 -5.4375 C 12.097656 -5.132812 12.425781 -4.984375 12.875 -4.984375 L 25.96875 -4.984375 L 24.15625 0 L 8.4375 0 C 7.78125 0 7.300781 -0.15625 7 -0.46875 L 4.1875 -2.765625 C 3.90625 -3.035156 3.738281 -3.375 3.6875 -3.78125 C 3.632812 -4.195312 3.6875 -4.628906 3.84375 -5.078125 L 9.484375 -20.640625 L 31.640625 -20.640625 L 29.828125 -15.65625 Z M 15.125 -15.65625 "/></g></g></g><g fill="#b5ff00" fill-opacity="1"><g transform="translate(147.974845, 33.618832)"><g><path d="M 9.453125 0 L 2 0 L 9.484375 -20.640625 L 16.265625 -20.640625 L 22.984375 -8.40625 L 27.421875 -20.640625 L 34.875 -20.640625 L 28.34375 -2.625 C 28.132812 -2.082031 27.773438 -1.679688 27.265625 -1.421875 L 24.953125 -0.25 C 24.671875 -0.0820312 24.375 0 24.0625 0 L 20.609375 0 L 13.703125 -11.734375 Z M 9.453125 0 "/></g></g></g><g fill="#b5ff00" fill-opacity="1"><g transform="translate(176.152107, 33.618832)"><g><path d="M 26.625 0 L 19.1875 0 L 20.578125 -3.875 L 13.375 -3.875 L 11.609375 -5.640625 L 8.84375 0 L 1.328125 0 L 8.9375 -15.5625 C 9.144531 -16.050781 9.421875 -16.5 9.765625 -16.90625 C 10.117188 -17.320312 10.53125 -17.664062 11 -17.9375 L 15.5 -20.15625 C 16.03125 -20.476562 16.601562 -20.640625 17.21875 -20.640625 L 26.6875 -20.640625 C 26.988281 -20.640625 27.257812 -20.601562 27.5 -20.53125 C 27.738281 -20.457031 27.9375 -20.332031 28.09375 -20.15625 L 31.546875 -16.96875 C 31.835938 -16.6875 32.015625 -16.335938 32.078125 -15.921875 C 32.140625 -15.515625 32.085938 -15.078125 31.921875 -14.609375 Z M 15.890625 -14.109375 L 13.03125 -8.40625 L 22.21875 -8.40625 L 24.28125 -14.109375 C 24.445312 -14.523438 24.425781 -14.882812 24.21875 -15.1875 C 24.007812 -15.5 23.679688 -15.65625 23.234375 -15.65625 L 18.109375 -15.65625 C 17.660156 -15.65625 17.234375 -15.5 16.828125 -15.1875 C 16.429688 -14.882812 16.117188 -14.523438 15.890625 -14.109375 Z M 15.890625 -14.109375 "/></g></g></g><g fill="#b5ff00" fill-opacity="1"><g transform="translate(203.56867, 33.618832)"><g><path d="M 16.765625 0 L 14.203125 0 L 13.5625 -11.953125 L 12.109375 -7.359375 L 9.453125 0 L 2 0 L 9.484375 -20.640625 L 17.59375 -20.640625 L 18.140625 -7.296875 L 28.34375 -20.640625 L 36.453125 -20.640625 L 28.984375 0 L 21.53125 0 L 24.1875 -7.359375 L 26.09375 -11.953125 Z M 16.765625 0 "/></g></g></g><g fill="#b5ff00" fill-opacity="1"><g transform="translate(233.330747, 33.618832)"><g><path d="M 15.125 -15.65625 L 14.046875 -12.65625 L 27.421875 -12.65625 L 25.71875 -7.984375 L 12.328125 -7.984375 L 11.796875 -6.53125 C 11.648438 -6.101562 11.679688 -5.738281 11.890625 -5.4375 C 12.097656 -5.132812 12.425781 -4.984375 12.875 -4.984375 L 25.96875 -4.984375 L 24.15625 0 L 8.4375 0 C 7.78125 0 7.300781 -0.15625 7 -0.46875 L 4.1875 -2.765625 C 3.90625 -3.035156 3.738281 -3.375 3.6875 -3.78125 C 3.632812 -4.195312 3.6875 -4.628906 3.84375 -5.078125 L 9.484375 -20.640625 L 31.640625 -20.640625 L 29.828125 -15.65625 Z M 15.125 -15.65625 "/></g></g></g><g fill="#b5ff00" fill-opacity="1"><g transform="translate(258.053129, 33.618832)"><g><path d="M 9.453125 0 L 2 0 L 9.484375 -20.640625 L 25.453125 -20.640625 C 27.847656 -20.640625 29.5625 -20.148438 30.59375 -19.171875 C 31.625 -18.203125 31.769531 -16.691406 31.03125 -14.640625 L 29.921875 -11.671875 C 29.835938 -11.429688 29.726562 -11.21875 29.59375 -11.03125 C 29.457031 -10.84375 29.273438 -10.632812 29.046875 -10.40625 L 26.46875 -8.53125 C 25.707031 -7.957031 24.988281 -7.671875 24.3125 -7.671875 L 22.3125 -7.671875 L 26.5625 -0.1875 L 26.5 0 L 17.3125 0 L 13 -9.765625 Z M 15.125 -15.65625 L 13.4375 -11 L 20.609375 -11 C 21.046875 -11 21.476562 -11.15625 21.90625 -11.46875 C 22.332031 -11.789062 22.617188 -12.148438 22.765625 -12.546875 L 23.296875 -14.109375 C 23.472656 -14.554688 23.457031 -14.925781 23.25 -15.21875 C 23.050781 -15.507812 22.738281 -15.65625 22.3125 -15.65625 Z M 15.125 -15.65625 "/></g></g></g></g></g><g transform="matrix(1, 0, 0, 1, 102, 81)"><g clip-path="url(#3d042ca8b9)"><g fill="#ffffff" fill-opacity="1"><g transform="translate(0.646911, 11.478454)"><g><path d="M 1.875 -6.171875 L 5.984375 -6.171875 C 6.203125 -6.171875 6.375 -6.101562 6.5 -5.96875 C 6.632812 -5.84375 6.703125 -5.679688 6.703125 -5.484375 C 6.703125 -5.453125 6.703125 -5.421875 6.703125 -5.390625 C 6.703125 -5.359375 6.695312 -5.328125 6.6875 -5.296875 L 6.390625 -3.90625 C 6.347656 -3.71875 6.257812 -3.550781 6.125 -3.40625 C 5.988281 -3.257812 5.828125 -3.15625 5.640625 -3.09375 C 5.765625 -3.039062 5.863281 -2.957031 5.9375 -2.84375 C 6.019531 -2.726562 6.0625 -2.59375 6.0625 -2.4375 C 6.0625 -2.375 6.050781 -2.3125 6.03125 -2.25 L 5.75 -0.875 C 5.71875 -0.71875 5.644531 -0.570312 5.53125 -0.4375 C 5.425781 -0.300781 5.296875 -0.191406 5.140625 -0.109375 C 4.992188 -0.0351562 4.835938 0 4.671875 0 L 0.578125 0 Z M 1.984375 -2.6875 L 1.59375 -0.8125 L 4.515625 -0.8125 C 4.617188 -0.8125 4.710938 -0.847656 4.796875 -0.921875 C 4.878906 -0.992188 4.929688 -1.078125 4.953125 -1.171875 L 5.1875 -2.21875 C 5.1875 -2.226562 5.1875 -2.242188 5.1875 -2.265625 C 5.1875 -2.285156 5.1875 -2.300781 5.1875 -2.3125 C 5.1875 -2.414062 5.15625 -2.503906 5.09375 -2.578125 C 5.03125 -2.648438 4.941406 -2.6875 4.828125 -2.6875 Z M 2.15625 -3.5 L 5 -3.5 C 5.125 -3.5 5.238281 -3.539062 5.34375 -3.625 C 5.457031 -3.71875 5.53125 -3.828125 5.5625 -3.953125 L 5.78125 -5 C 5.78125 -5.019531 5.78125 -5.046875 5.78125 -5.078125 C 5.78125 -5.160156 5.753906 -5.226562 5.703125 -5.28125 C 5.648438 -5.332031 5.578125 -5.359375 5.484375 -5.359375 L 2.5625 -5.359375 Z M 2.15625 -3.5 "/></g></g></g><g fill="#ffffff" fill-opacity="1"><g transform="translate(7.278386, 11.478454)"><g><path d="M 3.71875 -6.171875 L 5.03125 -6.171875 L 6.046875 0 L 5.15625 0 L 4.875 -1.640625 L 1.9375 -1.640625 L 0.96875 0 L 0.09375 0 Z M 2.421875 -2.4375 L 4.734375 -2.4375 L 4.21875 -5.46875 Z M 2.421875 -2.4375 "/></g></g></g><g fill="#ffffff" fill-opacity="1"><g transform="translate(13.909861, 11.478454)"><g><path d="M 1.390625 -6.171875 L 6.375 -6.171875 L 6.21875 -5.359375 L 4.140625 -5.359375 L 3 0 L 2.15625 0 L 3.296875 -5.359375 L 1.234375 -5.359375 Z M 1.390625 -6.171875 "/></g></g></g><g fill="#ffffff" fill-opacity="1"><g transform="translate(19.56449, 11.478454)"><g><path d="M 2.765625 -6.171875 L 5.984375 -6.171875 C 6.203125 -6.171875 6.375 -6.101562 6.5 -5.96875 C 6.632812 -5.84375 6.703125 -5.679688 6.703125 -5.484375 C 6.703125 -5.453125 6.703125 -5.421875 6.703125 -5.390625 C 6.703125 -5.359375 6.695312 -5.328125 6.6875 -5.296875 L 6.5625 -4.71875 L 5.71875 -4.71875 L 5.78125 -5 C 5.78125 -5.019531 5.78125 -5.046875 5.78125 -5.078125 C 5.78125 -5.160156 5.753906 -5.226562 5.703125 -5.28125 C 5.648438 -5.332031 5.578125 -5.359375 5.484375 -5.359375 L 2.921875 -5.359375 C 2.828125 -5.359375 2.734375 -5.320312 2.640625 -5.25 C 2.554688 -5.1875 2.5 -5.101562 2.46875 -5 L 1.65625 -1.171875 C 1.65625 -1.160156 1.65625 -1.144531 1.65625 -1.125 C 1.65625 -1.113281 1.65625 -1.101562 1.65625 -1.09375 C 1.65625 -1.007812 1.679688 -0.941406 1.734375 -0.890625 C 1.796875 -0.835938 1.867188 -0.8125 1.953125 -0.8125 L 4.515625 -0.8125 C 4.617188 -0.8125 4.710938 -0.847656 4.796875 -0.921875 C 4.878906 -0.992188 4.929688 -1.078125 4.953125 -1.171875 L 5.03125 -1.453125 L 5.859375 -1.453125 L 5.75 -0.875 C 5.71875 -0.71875 5.644531 -0.570312 5.53125 -0.4375 C 5.425781 -0.300781 5.296875 -0.191406 5.140625 -0.109375 C 4.992188 -0.0351562 4.835938 0 4.671875 0 L 1.453125 0 C 1.242188 0 1.070312 -0.0625 0.9375 -0.1875 C 0.800781 -0.320312 0.734375 -0.488281 0.734375 -0.6875 C 0.734375 -0.75 0.742188 -0.8125 0.765625 -0.875 L 1.703125 -5.296875 C 1.734375 -5.460938 1.800781 -5.609375 1.90625 -5.734375 C 2.019531 -5.867188 2.148438 -5.972656 2.296875 -6.046875 C 2.441406 -6.128906 2.597656 -6.171875 2.765625 -6.171875 Z M 2.765625 -6.171875 "/></g></g></g><g fill="#ffffff" fill-opacity="1"><g transform="translate(26.068895, 11.478454)"><g><path d="M 1.875 -6.171875 L 2.71875 -6.171875 L 2.15625 -3.53125 L 5.46875 -3.53125 L 6.03125 -6.171875 L 6.859375 -6.171875 L 5.5625 0 L 4.71875 0 L 5.28125 -2.65625 L 1.96875 -2.65625 L 1.40625 0 L 0.578125 0 Z M 1.875 -6.171875 "/></g></g></g><g fill="#ffffff" fill-opacity="1"><g transform="translate(32.70037, 11.478454)"><g/></g></g><g fill="#ffffff" fill-opacity="1"><g transform="translate(35.567387, 11.478454)"><g><path d="M 1.875 -6.171875 L 5.984375 -6.171875 C 6.203125 -6.171875 6.375 -6.101562 6.5 -5.96875 C 6.632812 -5.84375 6.703125 -5.679688 6.703125 -5.484375 C 6.703125 -5.453125 6.703125 -5.421875 6.703125 -5.390625 C 6.703125 -5.359375 6.695312 -5.328125 6.6875 -5.296875 L 6.203125 -3.03125 C 6.171875 -2.863281 6.097656 -2.710938 5.984375 -2.578125 C 5.878906 -2.441406 5.75 -2.332031 5.59375 -2.25 C 5.445312 -2.175781 5.289062 -2.140625 5.125 -2.140625 L 5.09375 -2.140625 L 6.03125 0 L 5.015625 0 L 4.078125 -2.140625 L 1.859375 -2.140625 L 1.40625 0 L 0.578125 0 Z M 2.046875 -2.953125 L 4.96875 -2.953125 C 5.070312 -2.953125 5.164062 -2.984375 5.25 -3.046875 C 5.34375 -3.117188 5.398438 -3.207031 5.421875 -3.3125 L 5.78125 -5 C 5.78125 -5.019531 5.78125 -5.046875 5.78125 -5.078125 C 5.78125 -5.160156 5.753906 -5.226562 5.703125 -5.28125 C 5.648438 -5.332031 5.578125 -5.359375 5.484375 -5.359375 L 2.5625 -5.359375 Z M 2.046875 -2.953125 "/></g></g></g><g fill="#ffffff" fill-opacity="1"><g transform="translate(42.143269, 11.478454)"><g><path d="M 1.875 -6.171875 L 6.46875 -6.171875 L 6.296875 -5.359375 L 2.5625 -5.359375 L 2.15625 -3.5 L 5.03125 -3.5 L 4.84375 -2.6875 L 1.984375 -2.6875 L 1.59375 -0.8125 L 5.328125 -0.8125 L 5.15625 0 L 0.578125 0 Z M 1.875 -6.171875 "/></g></g></g><g fill="#ffffff" fill-opacity="1"><g transform="translate(47.924969, 11.478454)"><g><path d="M 1.875 -6.171875 L 2.71875 -6.171875 L 5.015625 -1.375 L 6.03125 -6.171875 L 6.859375 -6.171875 L 5.5625 0 L 4.71875 0 L 2.4375 -4.796875 L 1.40625 0 L 0.578125 0 Z M 1.875 -6.171875 "/></g></g></g><g fill="#ffffff" fill-opacity="1"><g transform="translate(54.556444, 11.478454)"><g><path d="M 3.71875 -6.171875 L 5.03125 -6.171875 L 6.046875 0 L 5.15625 0 L 4.875 -1.640625 L 1.9375 -1.640625 L 0.96875 0 L 0.09375 0 Z M 2.421875 -2.4375 L 4.734375 -2.4375 L 4.21875 -5.46875 Z M 2.421875 -2.4375 "/></g></g></g><g fill="#ffffff" fill-opacity="1"><g transform="translate(61.187919, 11.478454)"><g><path d="M 1.875 -6.171875 L 2.71875 -6.171875 L 3.9375 -1.84375 L 7 -6.171875 L 7.828125 -6.171875 L 6.53125 0 L 5.6875 0 L 6.703125 -4.78125 L 3.96875 -0.875 L 3.515625 -0.875 L 2.421875 -4.78125 L 1.40625 0 L 0.578125 0 Z M 1.875 -6.171875 "/></g></g></g><g fill="#ffffff" fill-opacity="1"><g transform="translate(68.788312, 11.478454)"><g><path d="M 1.875 -6.171875 L 6.46875 -6.171875 L 6.296875 -5.359375 L 2.5625 -5.359375 L 2.15625 -3.5 L 5.03125 -3.5 L 4.84375 -2.6875 L 1.984375 -2.6875 L 1.59375 -0.8125 L 5.328125 -0.8125 L 5.15625 0 L 0.578125 0 Z M 1.875 -6.171875 "/></g></g></g><g fill="#ffffff" fill-opacity="1"><g transform="translate(74.570012, 11.478454)"><g/></g></g><g fill="#ffffff" fill-opacity="1"><g transform="translate(77.437029, 11.478454)"><g><path d="M 1.875 -6.171875 L 6.46875 -6.171875 L 6.296875 -5.359375 L 2.5625 -5.359375 L 2.15625 -3.5 L 5.03125 -3.5 L 4.84375 -2.6875 L 1.984375 -2.6875 L 1.40625 0 L 0.578125 0 Z M 1.875 -6.171875 "/></g></g></g><g fill="#ffffff" fill-opacity="1"><g transform="translate(83.131366, 11.478454)"><g><path d="M 1.875 -6.171875 L 2.71875 -6.171875 L 1.40625 0 L 0.578125 0 Z M 1.875 -6.171875 "/></g></g></g><g fill="#ffffff" fill-opacity="1"><g transform="translate(85.609234, 11.478454)"><g><path d="M 1.875 -6.171875 L 2.71875 -6.171875 L 1.59375 -0.8125 L 5.328125 -0.8125 L 5.15625 0 L 0.578125 0 Z M 1.875 -6.171875 "/></g></g></g><g fill="#ffffff" fill-opacity="1"><g transform="translate(91.303571, 11.478454)"><g><path d="M 1.875 -6.171875 L 6.46875 -6.171875 L 6.296875 -5.359375 L 2.5625 -5.359375 L 2.15625 -3.5 L 5.03125 -3.5 L 4.84375 -2.6875 L 1.984375 -2.6875 L 1.59375 -0.8125 L 5.328125 -0.8125 L 5.15625 0 L 0.578125 0 Z M 1.875 -6.171875 "/></g></g></g><g fill="#ffffff" fill-opacity="1"><g transform="translate(97.085271, 11.478454)"><g><path d="M 2.765625 -6.171875 L 6.6875 -6.171875 L 6.53125 -5.359375 L 2.921875 -5.359375 C 2.828125 -5.359375 2.734375 -5.320312 2.640625 -5.25 C 2.554688 -5.1875 2.5 -5.101562 2.46875 -5 L 2.234375 -3.859375 C 2.234375 -3.835938 2.234375 -3.8125 2.234375 -3.78125 C 2.234375 -3.695312 2.257812 -3.628906 2.3125 -3.578125 C 2.375 -3.523438 2.445312 -3.5 2.53125 -3.5 L 5.421875 -3.5 C 5.640625 -3.5 5.8125 -3.429688 5.9375 -3.296875 C 6.070312 -3.171875 6.140625 -3.003906 6.140625 -2.796875 C 6.140625 -2.734375 6.128906 -2.671875 6.109375 -2.609375 L 5.75 -0.875 C 5.71875 -0.71875 5.644531 -0.570312 5.53125 -0.4375 C 5.425781 -0.300781 5.296875 -0.191406 5.140625 -0.109375 C 4.992188 -0.0351562 4.835938 0 4.671875 0 L 0.75 0 L 0.921875 -0.8125 L 4.515625 -0.8125 C 4.617188 -0.8125 4.710938 -0.847656 4.796875 -0.921875 C 4.878906 -0.992188 4.929688 -1.078125 4.953125 -1.171875 L 5.203125 -2.3125 C 5.210938 -2.332031 5.21875 -2.359375 5.21875 -2.390625 C 5.21875 -2.472656 5.1875 -2.539062 5.125 -2.59375 C 5.070312 -2.65625 5 -2.6875 4.90625 -2.6875 L 2.03125 -2.6875 C 1.8125 -2.6875 1.632812 -2.75 1.5 -2.875 C 1.375 -3.007812 1.3125 -3.175781 1.3125 -3.375 C 1.3125 -3.40625 1.3125 -3.4375 1.3125 -3.46875 C 1.3125 -3.5 1.316406 -3.53125 1.328125 -3.5625 L 1.703125 -5.296875 C 1.734375 -5.460938 1.800781 -5.609375 1.90625 -5.734375 C 2.019531 -5.867188 2.148438 -5.972656 2.296875 -6.046875 C 2.441406 -6.128906 2.597656 -6.171875 2.765625 -6.171875 Z M 2.765625 -6.171875 "/></g></g></g><g fill="#ffffff" fill-opacity="1"><g transform="translate(103.716746, 11.478454)"><g/></g></g><g fill="#ffffff" fill-opacity="1"><g transform="translate(106.583763, 11.478454)"><g><path d="M 1.046875 -3.046875 L 4.421875 -3.046875 L 4.265625 -2.3125 L 0.890625 -2.3125 Z M 1.046875 -3.046875 "/></g></g></g><g fill="#ffffff" fill-opacity="1"><g transform="translate(111.253589, 11.478454)"><g/></g></g><g fill="#ffffff" fill-opacity="1"><g transform="translate(114.120606, 11.478454)"><g><path d="M 2.765625 -6.171875 L 5.984375 -6.171875 C 6.191406 -6.171875 6.363281 -6.101562 6.5 -5.96875 C 6.632812 -5.832031 6.703125 -5.664062 6.703125 -5.46875 C 6.703125 -5.4375 6.703125 -5.40625 6.703125 -5.375 C 6.703125 -5.351562 6.695312 -5.328125 6.6875 -5.296875 L 5.75 -0.875 C 5.71875 -0.71875 5.644531 -0.570312 5.53125 -0.4375 C 5.414062 -0.3125 5.28125 -0.207031 5.125 -0.125 C 4.976562 -0.0390625 4.828125 0 4.671875 0 L 1.453125 0 C 1.242188 0 1.070312 -0.0664062 0.9375 -0.203125 C 0.8125 -0.335938 0.75 -0.503906 0.75 -0.703125 C 0.75 -0.734375 0.75 -0.757812 0.75 -0.78125 C 0.75 -0.8125 0.753906 -0.84375 0.765625 -0.875 L 1.703125 -5.296875 C 1.734375 -5.453125 1.800781 -5.597656 1.90625 -5.734375 C 2.019531 -5.867188 2.148438 -5.972656 2.296875 -6.046875 C 2.453125 -6.128906 2.609375 -6.171875 2.765625 -6.171875 Z M 2.921875 -5.359375 C 2.828125 -5.359375 2.734375 -5.320312 2.640625 -5.25 C 2.554688 -5.1875 2.5 -5.101562 2.46875 -5 L 1.65625 -1.171875 C 1.65625 -1.160156 1.65625 -1.144531 1.65625 -1.125 C 1.65625 -1.113281 1.65625 -1.101562 1.65625 -1.09375 C 1.65625 -1.007812 1.679688 -0.941406 1.734375 -0.890625 C 1.796875 -0.835938 1.867188 -0.8125 1.953125 -0.8125 L 4.515625 -0.8125 C 4.617188 -0.8125 4.710938 -0.847656 4.796875 -0.921875 C 4.878906 -0.992188 4.929688 -1.078125 4.953125 -1.171875 L 5.78125 -5 C 5.78125 -5.019531 5.78125 -5.046875 5.78125 -5.078125 C 5.78125 -5.160156 5.753906 -5.226562 5.703125 -5.28125 C 5.648438 -5.332031 5.578125 -5.359375 5.484375 -5.359375 Z M 2.921875 -5.359375 "/></g></g></g><g fill="#ffffff" fill-opacity="1"><g transform="translate(120.752081, 11.478454)"><g><path d="M 1.875 -6.171875 L 5.984375 -6.171875 C 6.203125 -6.171875 6.375 -6.101562 6.5 -5.96875 C 6.632812 -5.84375 6.703125 -5.679688 6.703125 -5.484375 C 6.703125 -5.453125 6.703125 -5.421875 6.703125 -5.390625 C 6.703125 -5.359375 6.695312 -5.328125 6.6875 -5.296875 L 6.125 -2.640625 C 6.09375 -2.472656 6.019531 -2.320312 5.90625 -2.1875 C 5.800781 -2.0625 5.671875 -1.957031 5.515625 -1.875 C 5.367188 -1.800781 5.210938 -1.765625 5.046875 -1.765625 L 1.78125 -1.765625 L 1.40625 0 L 0.578125 0 Z M 1.953125 -2.578125 L 4.890625 -2.578125 C 4.992188 -2.578125 5.085938 -2.609375 5.171875 -2.671875 C 5.265625 -2.742188 5.320312 -2.832031 5.34375 -2.9375 L 5.78125 -5.03125 C 5.789062 -5.050781 5.796875 -5.078125 5.796875 -5.109375 C 5.796875 -5.191406 5.765625 -5.257812 5.703125 -5.3125 C 5.648438 -5.375 5.582031 -5.40625 5.5 -5.40625 L 2.5625 -5.40625 Z M 1.953125 -2.578125 "/></g></g></g><g fill="#ffffff" fill-opacity="1"><g transform="translate(127.383556, 11.478454)"><g><path d="M 1.875 -6.171875 L 6.46875 -6.171875 L 6.296875 -5.359375 L 2.5625 -5.359375 L 2.15625 -3.5 L 5.03125 -3.5 L 4.84375 -2.6875 L 1.984375 -2.6875 L 1.59375 -0.8125 L 5.328125 -0.8125 L 5.15625 0 L 0.578125 0 Z M 1.875 -6.171875 "/></g></g></g><g fill="#ffffff" fill-opacity="1"><g transform="translate(133.165256, 11.478454)"><g><path d="M 1.875 -6.171875 L 2.71875 -6.171875 L 5.015625 -1.375 L 6.03125 -6.171875 L 6.859375 -6.171875 L 5.5625 0 L 4.71875 0 L 2.4375 -4.796875 L 1.40625 0 L 0.578125 0 Z M 1.875 -6.171875 "/></g></g></g><g fill="#ffffff" fill-opacity="1"><g transform="translate(139.79673, 11.478454)"><g/></g></g><g fill="#ffffff" fill-opacity="1"><g transform="translate(142.663748, 11.478454)"><g><path d="M 2.765625 -6.171875 L 6.6875 -6.171875 L 6.53125 -5.359375 L 2.921875 -5.359375 C 2.828125 -5.359375 2.734375 -5.320312 2.640625 -5.25 C 2.554688 -5.1875 2.5 -5.101562 2.46875 -5 L 2.234375 -3.859375 C 2.234375 -3.835938 2.234375 -3.8125 2.234375 -3.78125 C 2.234375 -3.695312 2.257812 -3.628906 2.3125 -3.578125 C 2.375 -3.523438 2.445312 -3.5 2.53125 -3.5 L 5.421875 -3.5 C 5.640625 -3.5 5.8125 -3.429688 5.9375 -3.296875 C 6.070312 -3.171875 6.140625 -3.003906 6.140625 -2.796875 C 6.140625 -2.734375 6.128906 -2.671875 6.109375 -2.609375 L 5.75 -0.875 C 5.71875 -0.71875 5.644531 -0.570312 5.53125 -0.4375 C 5.425781 -0.300781 5.296875 -0.191406 5.140625 -0.109375 C 4.992188 -0.0351562 4.835938 0 4.671875 0 L 0.75 0 L 0.921875 -0.8125 L 4.515625 -0.8125 C 4.617188 -0.8125 4.710938 -0.847656 4.796875 -0.921875 C 4.878906 -0.992188 4.929688 -1.078125 4.953125 -1.171875 L 5.203125 -2.3125 C 5.210938 -2.332031 5.21875 -2.359375 5.21875 -2.390625 C 5.21875 -2.472656 5.1875 -2.539062 5.125 -2.59375 C 5.070312 -2.65625 5 -2.6875 4.90625 -2.6875 L 2.03125 -2.6875 C 1.8125 -2.6875 1.632812 -2.75 1.5 -2.875 C 1.375 -3.007812 1.3125 -3.175781 1.3125 -3.375 C 1.3125 -3.40625 1.3125 -3.4375 1.3125 -3.46875 C 1.3125 -3.5 1.316406 -3.53125 1.328125 -3.5625 L 1.703125 -5.296875 C 1.734375 -5.460938 1.800781 -5.609375 1.90625 -5.734375 C 2.019531 -5.867188 2.148438 -5.972656 2.296875 -6.046875 C 2.441406 -6.128906 2.597656 -6.171875 2.765625 -6.171875 Z M 2.765625 -6.171875 "/></g></g></g><g fill="#ffffff" fill-opacity="1"><g transform="translate(149.295223, 11.478454)"><g><path d="M 2.765625 -6.171875 L 5.984375 -6.171875 C 6.191406 -6.171875 6.363281 -6.101562 6.5 -5.96875 C 6.632812 -5.832031 6.703125 -5.664062 6.703125 -5.46875 C 6.703125 -5.4375 6.703125 -5.40625 6.703125 -5.375 C 6.703125 -5.351562 6.695312 -5.328125 6.6875 -5.296875 L 5.75 -0.875 C 5.71875 -0.71875 5.644531 -0.570312 5.53125 -0.4375 C 5.414062 -0.3125 5.28125 -0.207031 5.125 -0.125 C 4.976562 -0.0390625 4.828125 0 4.671875 0 L 1.453125 0 C 1.242188 0 1.070312 -0.0664062 0.9375 -0.203125 C 0.8125 -0.335938 0.75 -0.503906 0.75 -0.703125 C 0.75 -0.734375 0.75 -0.757812 0.75 -0.78125 C 0.75 -0.8125 0.753906 -0.84375 0.765625 -0.875 L 1.703125 -5.296875 C 1.734375 -5.453125 1.800781 -5.597656 1.90625 -5.734375 C 2.019531 -5.867188 2.148438 -5.972656 2.296875 -6.046875 C 2.453125 -6.128906 2.609375 -6.171875 2.765625 -6.171875 Z M 2.921875 -5.359375 C 2.828125 -5.359375 2.734375 -5.320312 2.640625 -5.25 C 2.554688 -5.1875 2.5 -5.101562 2.46875 -5 L 1.65625 -1.171875 C 1.65625 -1.160156 1.65625 -1.144531 1.65625 -1.125 C 1.65625 -1.113281 1.65625 -1.101562 1.65625 -1.09375 C 1.65625 -1.007812 1.679688 -0.941406 1.734375 -0.890625 C 1.796875 -0.835938 1.867188 -0.8125 1.953125 -0.8125 L 4.515625 -0.8125 C 4.617188 -0.8125 4.710938 -0.847656 4.796875 -0.921875 C 4.878906 -0.992188 4.929688 -1.078125 4.953125 -1.171875 L 5.78125 -5 C 5.78125 -5.019531 5.78125 -5.046875 5.78125 -5.078125 C 5.78125 -5.160156 5.753906 -5.226562 5.703125 -5.28125 C 5.648438 -5.332031 5.578125 -5.359375 5.484375 -5.359375 Z M 2.921875 -5.359375 "/></g></g></g><g fill="#ffffff" fill-opacity="1"><g transform="translate(155.926698, 11.478454)"><g><path d="M 1.875 -6.171875 L 2.71875 -6.171875 L 1.65625 -1.171875 C 1.65625 -1.160156 1.65625 -1.144531 1.65625 -1.125 C 1.65625 -1.113281 1.65625 -1.101562 1.65625 -1.09375 C 1.65625 -1.007812 1.679688 -0.941406 1.734375 -0.890625 C 1.796875 -0.835938 1.867188 -0.8125 1.953125 -0.8125 L 4.515625 -0.8125 C 4.617188 -0.8125 4.710938 -0.847656 4.796875 -0.921875 C 4.878906 -0.992188 4.929688 -1.078125 4.953125 -1.171875 L 6.03125 -6.171875 L 6.859375 -6.171875 L 5.75 -0.875 C 5.71875 -0.71875 5.644531 -0.570312 5.53125 -0.4375 C 5.414062 -0.3125 5.28125 -0.207031 5.125 -0.125 C 4.976562 -0.0390625 4.828125 0 4.671875 0 L 1.453125 0 C 1.242188 0 1.070312 -0.0664062 0.9375 -0.203125 C 0.8125 -0.335938 0.75 -0.503906 0.75 -0.703125 C 0.75 -0.734375 0.75 -0.757812 0.75 -0.78125 C 0.75 -0.8125 0.753906 -0.84375 0.765625 -0.875 Z M 1.875 -6.171875 "/></g></g></g><g fill="#ffffff" fill-opacity="1"><g transform="translate(162.558172, 11.478454)"><g><path d="M 1.875 -6.171875 L 5.984375 -6.171875 C 6.203125 -6.171875 6.375 -6.101562 6.5 -5.96875 C 6.632812 -5.84375 6.703125 -5.679688 6.703125 -5.484375 C 6.703125 -5.453125 6.703125 -5.421875 6.703125 -5.390625 C 6.703125 -5.359375 6.695312 -5.328125 6.6875 -5.296875 L 6.203125 -3.03125 C 6.171875 -2.863281 6.097656 -2.710938 5.984375 -2.578125 C 5.878906 -2.441406 5.75 -2.332031 5.59375 -2.25 C 5.445312 -2.175781 5.289062 -2.140625 5.125 -2.140625 L 5.09375 -2.140625 L 6.03125 0 L 5.015625 0 L 4.078125 -2.140625 L 1.859375 -2.140625 L 1.40625 0 L 0.578125 0 Z M 2.046875 -2.953125 L 4.96875 -2.953125 C 5.070312 -2.953125 5.164062 -2.984375 5.25 -3.046875 C 5.34375 -3.117188 5.398438 -3.207031 5.421875 -3.3125 L 5.78125 -5 C 5.78125 -5.019531 5.78125 -5.046875 5.78125 -5.078125 C 5.78125 -5.160156 5.753906 -5.226562 5.703125 -5.28125 C 5.648438 -5.332031 5.578125 -5.359375 5.484375 -5.359375 L 2.5625 -5.359375 Z M 2.046875 -2.953125 "/></g></g></g><g fill="#ffffff" fill-opacity="1"><g transform="translate(169.134055, 11.478454)"><g><path d="M 2.765625 -6.171875 L 5.984375 -6.171875 C 6.203125 -6.171875 6.375 -6.101562 6.5 -5.96875 C 6.632812 -5.84375 6.703125 -5.679688 6.703125 -5.484375 C 6.703125 -5.453125 6.703125 -5.421875 6.703125 -5.390625 C 6.703125 -5.359375 6.695312 -5.328125 6.6875 -5.296875 L 6.5625 -4.71875 L 5.71875 -4.71875 L 5.78125 -5 C 5.78125 -5.019531 5.78125 -5.046875 5.78125 -5.078125 C 5.78125 -5.160156 5.753906 -5.226562 5.703125 -5.28125 C 5.648438 -5.332031 5.578125 -5.359375 5.484375 -5.359375 L 2.921875 -5.359375 C 2.828125 -5.359375 2.734375 -5.320312 2.640625 -5.25 C 2.554688 -5.1875 2.5 -5.101562 2.46875 -5 L 1.65625 -1.171875 C 1.65625 -1.160156 1.65625 -1.144531 1.65625 -1.125 C 1.65625 -1.113281 1.65625 -1.101562 1.65625 -1.09375 C 1.65625 -1.007812 1.679688 -0.941406 1.734375 -0.890625 C 1.796875 -0.835938 1.867188 -0.8125 1.953125 -0.8125 L 4.515625 -0.8125 C 4.617188 -0.8125 4.710938 -0.847656 4.796875 -0.921875 C 4.878906 -0.992188 4.929688 -1.078125 4.953125 -1.171875 L 5.03125 -1.453125 L 5.859375 -1.453125 L 5.75 -0.875 C 5.71875 -0.71875 5.644531 -0.570312 5.53125 -0.4375 C 5.425781 -0.300781 5.296875 -0.191406 5.140625 -0.109375 C 4.992188 -0.0351562 4.835938 0 4.671875 0 L 1.453125 0 C 1.242188 0 1.070312 -0.0625 0.9375 -0.1875 C 0.800781 -0.320312 0.734375 -0.488281 0.734375 -0.6875 C 0.734375 -0.75 0.742188 -0.8125 0.765625 -0.875 L 1.703125 -5.296875 C 1.734375 -5.460938 1.800781 -5.609375 1.90625 -5.734375 C 2.019531 -5.867188 2.148438 -5.972656 2.296875 -6.046875 C 2.441406 -6.128906 2.597656 -6.171875 2.765625 -6.171875 Z M 2.765625 -6.171875 "/></g></g></g><g fill="#ffffff" fill-opacity="1"><g transform="translate(175.638459, 11.478454)"><g><path d="M 1.875 -6.171875 L 6.46875 -6.171875 L 6.296875 -5.359375 L 2.5625 -5.359375 L 2.15625 -3.5 L 5.03125 -3.5 L 4.84375 -2.6875 L 1.984375 -2.6875 L 1.59375 -0.8125 L 5.328125 -0.8125 L 5.15625 0 L 0.578125 0 Z M 1.875 -6.171875 "/></g></g></g><g fill="#ffffff" fill-opacity="1"><g transform="translate(181.420159, 11.478454)"><g/></g></g><g fill="#ffffff" fill-opacity="1"><g transform="translate(184.287166, 11.478454)"><g><path d="M 1.875 -6.171875 L 5.984375 -6.171875 C 6.203125 -6.171875 6.375 -6.101562 6.5 -5.96875 C 6.632812 -5.84375 6.703125 -5.679688 6.703125 -5.484375 C 6.703125 -5.453125 6.703125 -5.421875 6.703125 -5.390625 C 6.703125 -5.359375 6.695312 -5.328125 6.6875 -5.296875 L 6.125 -2.640625 C 6.09375 -2.472656 6.019531 -2.320312 5.90625 -2.1875 C 5.800781 -2.0625 5.671875 -1.957031 5.515625 -1.875 C 5.367188 -1.800781 5.210938 -1.765625 5.046875 -1.765625 L 1.78125 -1.765625 L 1.40625 0 L 0.578125 0 Z M 1.953125 -2.578125 L 4.890625 -2.578125 C 4.992188 -2.578125 5.085938 -2.609375 5.171875 -2.671875 C 5.265625 -2.742188 5.320312 -2.832031 5.34375 -2.9375 L 5.78125 -5.03125 C 5.789062 -5.050781 5.796875 -5.078125 5.796875 -5.109375 C 5.796875 -5.191406 5.765625 -5.257812 5.703125 -5.3125 C 5.648438 -5.375 5.582031 -5.40625 5.5 -5.40625 L 2.5625 -5.40625 Z M 1.953125 -2.578125 "/></g></g></g><g fill="#ffffff" fill-opacity="1"><g transform="translate(190.918661, 11.478454)"><g><path d="M 1.875 -6.171875 L 5.984375 -6.171875 C 6.203125 -6.171875 6.375 -6.101562 6.5 -5.96875 C 6.632812 -5.84375 6.703125 -5.679688 6.703125 -5.484375 C 6.703125 -5.453125 6.703125 -5.421875 6.703125 -5.390625 C 6.703125 -5.359375 6.695312 -5.328125 6.6875 -5.296875 L 6.203125 -3.03125 C 6.171875 -2.863281 6.097656 -2.710938 5.984375 -2.578125 C 5.878906 -2.441406 5.75 -2.332031 5.59375 -2.25 C 5.445312 -2.175781 5.289062 -2.140625 5.125 -2.140625 L 5.09375 -2.140625 L 6.03125 0 L 5.015625 0 L 4.078125 -2.140625 L 1.859375 -2.140625 L 1.40625 0 L 0.578125 0 Z M 2.046875 -2.953125 L 4.96875 -2.953125 C 5.070312 -2.953125 5.164062 -2.984375 5.25 -3.046875 C 5.34375 -3.117188 5.398438 -3.207031 5.421875 -3.3125 L 5.78125 -5 C 5.78125 -5.019531 5.78125 -5.046875 5.78125 -5.078125 C 5.78125 -5.160156 5.753906 -5.226562 5.703125 -5.28125 C 5.648438 -5.332031 5.578125 -5.359375 5.484375 -5.359375 L 2.5625 -5.359375 Z M 2.046875 -2.953125 "/></g></g></g><g fill="#ffffff" fill-opacity="1"><g transform="translate(197.494533, 11.478454)"><g><path d="M 2.765625 -6.171875 L 5.984375 -6.171875 C 6.191406 -6.171875 6.363281 -6.101562 6.5 -5.96875 C 6.632812 -5.832031 6.703125 -5.664062 6.703125 -5.46875 C 6.703125 -5.4375 6.703125 -5.40625 6.703125 -5.375 C 6.703125 -5.351562 6.695312 -5.328125 6.6875 -5.296875 L 5.75 -0.875 C 5.71875 -0.71875 5.644531 -0.570312 5.53125 -0.4375 C 5.414062 -0.3125 5.28125 -0.207031 5.125 -0.125 C 4.976562 -0.0390625 4.828125 0 4.671875 0 L 1.453125 0 C 1.242188 0 1.070312 -0.0664062 0.9375 -0.203125 C 0.8125 -0.335938 0.75 -0.503906 0.75 -0.703125 C 0.75 -0.734375 0.75 -0.757812 0.75 -0.78125 C 0.75 -0.8125 0.753906 -0.84375 0.765625 -0.875 L 1.703125 -5.296875 C 1.734375 -5.453125 1.800781 -5.597656 1.90625 -5.734375 C 2.019531 -5.867188 2.148438 -5.972656 2.296875 -6.046875 C 2.453125 -6.128906 2.609375 -6.171875 2.765625 -6.171875 Z M 2.921875 -5.359375 C 2.828125 -5.359375 2.734375 -5.320312 2.640625 -5.25 C 2.554688 -5.1875 2.5 -5.101562 2.46875 -5 L 1.65625 -1.171875 C 1.65625 -1.160156 1.65625 -1.144531 1.65625 -1.125 C 1.65625 -1.113281 1.65625 -1.101562 1.65625 -1.09375 C 1.65625 -1.007812 1.679688 -0.941406 1.734375 -0.890625 C 1.796875 -0.835938 1.867188 -0.8125 1.953125 -0.8125 L 4.515625 -0.8125 C 4.617188 -0.8125 4.710938 -0.847656 4.796875 -0.921875 C 4.878906 -0.992188 4.929688 -1.078125 4.953125 -1.171875 L 5.78125 -5 C 5.78125 -5.019531 5.78125 -5.046875 5.78125 -5.078125 C 5.78125 -5.160156 5.753906 -5.226562 5.703125 -5.28125 C 5.648438 -5.332031 5.578125 -5.359375 5.484375 -5.359375 Z M 2.921875 -5.359375 "/></g></g></g><g fill="#ffffff" fill-opacity="1"><g transform="translate(204.126008, 11.478454)"><g><path d="M 5.03125 -6.171875 L 5.875 -6.171875 L 4.75 -0.875 C 4.71875 -0.71875 4.644531 -0.570312 4.53125 -0.4375 C 4.425781 -0.300781 4.296875 -0.191406 4.140625 -0.109375 C 3.992188 -0.0351562 3.84375 0 3.6875 0 L 1.34375 0 C 1.132812 0 0.960938 -0.0625 0.828125 -0.1875 C 0.691406 -0.320312 0.625 -0.488281 0.625 -0.6875 C 0.625 -0.75 0.632812 -0.8125 0.65625 -0.875 L 0.90625 -2.09375 L 1.75 -2.09375 L 1.546875 -1.171875 C 1.546875 -1.160156 1.546875 -1.144531 1.546875 -1.125 C 1.546875 -1.113281 1.546875 -1.101562 1.546875 -1.09375 C 1.546875 -1.007812 1.570312 -0.941406 1.625 -0.890625 C 1.6875 -0.835938 1.757812 -0.8125 1.84375 -0.8125 L 3.53125 -0.8125 C 3.632812 -0.8125 3.726562 -0.847656 3.8125 -0.921875 C 3.894531 -0.992188 3.945312 -1.078125 3.96875 -1.171875 Z M 5.03125 -6.171875 "/></g></g></g><g fill="#ffffff" fill-opacity="1"><g transform="translate(209.748878, 11.478454)"><g><path d="M 1.875 -6.171875 L 6.46875 -6.171875 L 6.296875 -5.359375 L 2.5625 -5.359375 L 2.15625 -3.5 L 5.03125 -3.5 L 4.84375 -2.6875 L 1.984375 -2.6875 L 1.59375 -0.8125 L 5.328125 -0.8125 L 5.15625 0 L 0.578125 0 Z M 1.875 -6.171875 "/></g></g></g><g fill="#ffffff" fill-opacity="1"><g transform="translate(215.530557, 11.478454)"><g><path d="M 2.765625 -6.171875 L 5.984375 -6.171875 C 6.203125 -6.171875 6.375 -6.101562 6.5 -5.96875 C 6.632812 -5.84375 6.703125 -5.679688 6.703125 -5.484375 C 6.703125 -5.453125 6.703125 -5.421875 6.703125 -5.390625 C 6.703125 -5.359375 6.695312 -5.328125 6.6875 -5.296875 L 6.5625 -4.71875 L 5.71875 -4.71875 L 5.78125 -5 C 5.78125 -5.019531 5.78125 -5.046875 5.78125 -5.078125 C 5.78125 -5.160156 5.753906 -5.226562 5.703125 -5.28125 C 5.648438 -5.332031 5.578125 -5.359375 5.484375 -5.359375 L 2.921875 -5.359375 C 2.828125 -5.359375 2.734375 -5.320312 2.640625 -5.25 C 2.554688 -5.1875 2.5 -5.101562 2.46875 -5 L 1.65625 -1.171875 C 1.65625 -1.160156 1.65625 -1.144531 1.65625 -1.125 C 1.65625 -1.113281 1.65625 -1.101562 1.65625 -1.09375 C 1.65625 -1.007812 1.679688 -0.941406 1.734375 -0.890625 C 1.796875 -0.835938 1.867188 -0.8125 1.953125 -0.8125 L 4.515625 -0.8125 C 4.617188 -0.8125 4.710938 -0.847656 4.796875 -0.921875 C 4.878906 -0.992188 4.929688 -1.078125 4.953125 -1.171875 L 5.03125 -1.453125 L 5.859375 -1.453125 L 5.75 -0.875 C 5.71875 -0.71875 5.644531 -0.570312 5.53125 -0.4375 C 5.425781 -0.300781 5.296875 -0.191406 5.140625 -0.109375 C 4.992188 -0.0351562 4.835938 0 4.671875 0 L 1.453125 0 C 1.242188 0 1.070312 -0.0625 0.9375 -0.1875 C 0.800781 -0.320312 0.734375 -0.488281 0.734375 -0.6875 C 0.734375 -0.75 0.742188 -0.8125 0.765625 -0.875 L 1.703125 -5.296875 C 1.734375 -5.460938 1.800781 -5.609375 1.90625 -5.734375 C 2.019531 -5.867188 2.148438 -5.972656 2.296875 -6.046875 C 2.441406 -6.128906 2.597656 -6.171875 2.765625 -6.171875 Z M 2.765625 -6.171875 "/></g></g></g><g fill="#ffffff" fill-opacity="1"><g transform="translate(222.034972, 11.478454)"><g><path d="M 1.390625 -6.171875 L 6.375 -6.171875 L 6.21875 -5.359375 L 4.140625 -5.359375 L 3 0 L 2.15625 0 L 3.296875 -5.359375 L 1.234375 -5.359375 Z M 1.390625 -6.171875 "/></g></g></g></g></g></svg>