<svg xmlns="http://www.w3.org/2000/svg" xmlns:xlink="http://www.w3.org/1999/xlink" width="500" zoomAndPan="magnify" viewBox="0 0 375 168.749997" height="225" preserveAspectRatio="xMidYMid meet" version="1.0"><defs><g/><clipPath id="3d15c51e94"><path d="M 0.277344 0 L 374.722656 0 L 374.722656 167.953125 L 0.277344 167.953125 Z M 0.277344 0 " clip-rule="nonzero"/></clipPath><clipPath id="03a4d8ae0c"><path d="M 0.277344 0 L 374.722656 0 L 374.722656 167.953125 L 0.277344 167.953125 Z M 0.277344 0 " clip-rule="nonzero"/></clipPath><clipPath id="80cc37b2c0"><rect x="0" width="375" y="0" height="168"/></clipPath><clipPath id="10fa20b576"><path d="M 15.035156 20.230469 L 353.535156 20.230469 L 353.535156 134.8125 L 15.035156 134.8125 Z M 15.035156 20.230469 " clip-rule="nonzero"/></clipPath><clipPath id="648e4e8e48"><path d="M 21.378906 20.230469 L 359.875 20.230469 L 359.875 134.8125 L 21.378906 134.8125 Z M 21.378906 20.230469 " clip-rule="nonzero"/></clipPath><clipPath id="b7bf1b6fb9"><path d="M 0.742188 8 L 41 8 L 41 38 L 0.742188 38 Z M 0.742188 8 " clip-rule="nonzero"/></clipPath><clipPath id="9cb95d57cd"><rect x="0" width="298" y="0" height="44"/></clipPath><clipPath id="b30ca39df6"><rect x="0" width="231" y="0" height="18"/></clipPath></defs><g clip-path="url(#3d15c51e94)"><g transform="matrix(1, 0, 0, 1, 0.000000000000000056, 0)"><g clip-path="url(#80cc37b2c0)"><g clip-path="url(#03a4d8ae0c)"><path fill="#000000" d="M 0.277344 0 L 374.886719 0 L 374.886719 167.953125 L 0.277344 167.953125 Z M 0.277344 0 " fill-opacity="1" fill-rule="nonzero"/></g></g></g></g><g clip-path="url(#10fa20b576)"><path fill="#737373" d="M 131.230469 22.777344 L 117.765625 63.945312 C 117.6875 64.183594 117.664062 64.429688 117.703125 64.679688 C 117.742188 64.929688 117.835938 65.15625 117.980469 65.363281 C 118.125 65.566406 118.3125 65.730469 118.535156 65.847656 C 118.757812 65.964844 118.996094 66.027344 119.25 66.03125 L 351.804688 68.339844 C 352.015625 68.339844 352.21875 68.382812 352.414062 68.460938 C 352.609375 68.542969 352.78125 68.660156 352.929688 68.808594 C 353.078125 68.957031 353.195312 69.128906 353.277344 69.324219 C 353.355469 69.519531 353.398438 69.722656 353.398438 69.933594 C 353.398438 70.144531 353.355469 70.351562 353.277344 70.546875 C 353.195312 70.742188 353.078125 70.914062 352.929688 71.0625 C 352.78125 71.210938 352.609375 71.328125 352.414062 71.40625 C 352.21875 71.488281 352.015625 71.527344 351.804688 71.527344 L 106.828125 95.933594 C 106.546875 95.96875 106.296875 96.066406 106.070312 96.234375 C 105.847656 96.398438 105.675781 96.613281 105.5625 96.867188 L 90.335938 133.199219 C 90.234375 133.433594 90.085938 133.632812 89.886719 133.796875 C 89.6875 133.957031 89.464844 134.066406 89.214844 134.121094 C 88.964844 134.175781 88.714844 134.171875 88.464844 134.105469 C 88.21875 134.039062 88 133.921875 87.808594 133.75 L 66.207031 113.796875 C 65.992188 113.582031 65.730469 113.445312 65.433594 113.386719 C 65.132812 113.328125 64.84375 113.355469 64.558594 113.46875 L 17.234375 132.429688 C 16.890625 132.550781 16.542969 132.554688 16.195312 132.4375 C 15.847656 132.320312 15.574219 132.109375 15.371094 131.804688 C 15.171875 131.5 15.085938 131.164062 15.113281 130.796875 C 15.144531 130.433594 15.28125 130.117188 15.53125 129.847656 L 48.125 96.867188 C 48.257812 96.722656 48.359375 96.554688 48.433594 96.371094 C 48.503906 96.183594 48.539062 95.992188 48.539062 95.796875 C 48.539062 95.597656 48.503906 95.40625 48.433594 95.222656 C 48.359375 95.035156 48.257812 94.871094 48.125 94.722656 L 27.457031 70.15625 C 27.257812 69.921875 27.132812 69.65625 27.085938 69.351562 C 27.039062 69.046875 27.078125 68.753906 27.203125 68.472656 C 27.324219 68.1875 27.515625 67.960938 27.769531 67.789062 C 28.023438 67.617188 28.304688 67.527344 28.613281 67.515625 L 79.675781 66.085938 C 80.207031 66.085938 80.644531 65.882812 80.992188 65.484375 L 128.648438 21.125 C 128.914062 20.890625 129.226562 20.757812 129.578125 20.730469 C 129.933594 20.703125 130.261719 20.785156 130.5625 20.976562 C 130.859375 21.167969 131.074219 21.429688 131.195312 21.765625 C 131.320312 22.097656 131.332031 22.433594 131.230469 22.777344 Z M 131.230469 22.777344 " fill-opacity="1" fill-rule="nonzero"/></g><g clip-path="url(#648e4e8e48)"><path fill="#003b79" d="M 137.570312 22.777344 L 124.105469 63.945312 C 124.027344 64.183594 124.007812 64.429688 124.042969 64.679688 C 124.082031 64.929688 124.175781 65.15625 124.320312 65.363281 C 124.46875 65.566406 124.652344 65.730469 124.875 65.847656 C 125.097656 65.964844 125.335938 66.027344 125.589844 66.03125 L 358.144531 68.339844 C 358.355469 68.339844 358.558594 68.382812 358.753906 68.460938 C 358.949219 68.542969 359.121094 68.660156 359.269531 68.808594 C 359.421875 68.957031 359.535156 69.128906 359.617188 69.324219 C 359.699219 69.519531 359.738281 69.722656 359.738281 69.933594 C 359.738281 70.144531 359.699219 70.351562 359.617188 70.546875 C 359.535156 70.742188 359.421875 70.914062 359.269531 71.0625 C 359.121094 71.210938 358.949219 71.328125 358.753906 71.40625 C 358.558594 71.488281 358.355469 71.527344 358.144531 71.527344 L 113.167969 95.933594 C 112.890625 95.96875 112.636719 96.066406 112.414062 96.234375 C 112.1875 96.398438 112.015625 96.613281 111.902344 96.867188 L 96.679688 133.199219 C 96.578125 133.433594 96.425781 133.632812 96.226562 133.796875 C 96.03125 133.957031 95.804688 134.066406 95.554688 134.121094 C 95.304688 134.175781 95.054688 134.171875 94.808594 134.105469 C 94.558594 134.039062 94.339844 133.921875 94.148438 133.75 L 72.550781 113.796875 C 72.332031 113.582031 72.074219 113.445312 71.773438 113.386719 C 71.472656 113.328125 71.183594 113.355469 70.898438 113.46875 L 23.574219 132.429688 C 23.230469 132.550781 22.882812 132.554688 22.535156 132.4375 C 22.1875 132.320312 21.914062 132.109375 21.710938 131.804688 C 21.511719 131.5 21.425781 131.164062 21.453125 130.796875 C 21.484375 130.433594 21.625 130.117188 21.871094 129.847656 L 54.464844 96.867188 C 54.597656 96.722656 54.703125 96.554688 54.773438 96.371094 C 54.84375 96.183594 54.878906 95.992188 54.878906 95.796875 C 54.878906 95.597656 54.84375 95.40625 54.773438 95.222656 C 54.703125 95.035156 54.597656 94.871094 54.464844 94.722656 L 33.800781 70.15625 C 33.597656 69.921875 33.472656 69.65625 33.425781 69.351562 C 33.378906 69.046875 33.417969 68.753906 33.542969 68.472656 C 33.664062 68.1875 33.855469 67.960938 34.109375 67.789062 C 34.363281 67.617188 34.644531 67.527344 34.953125 67.515625 L 86.015625 66.085938 C 86.546875 66.085938 86.984375 65.882812 87.335938 65.484375 L 134.988281 21.125 C 135.253906 20.890625 135.566406 20.757812 135.921875 20.730469 C 136.273438 20.703125 136.601562 20.785156 136.902344 20.976562 C 137.203125 21.167969 137.414062 21.429688 137.539062 21.765625 C 137.660156 22.097656 137.671875 22.433594 137.570312 22.777344 Z M 137.570312 22.777344 " fill-opacity="1" fill-rule="nonzero"/></g><g transform="matrix(1, 0, 0, 1, 64, 66)"><g clip-path="url(#9cb95d57cd)"><g clip-path="url(#b7bf1b6fb9)"><g fill="#000000" fill-opacity="1"><g transform="translate(3.639224, 33.07473)"><g><path d="M 14.390625 -1.140625 C 14.101562 -0.390625 13.695312 0.277344 13.175781 0.859375 C 12.640625 1.457031 12.007812 1.9375 11.28125 2.300781 L 8.976562 3.46875 L 7.089844 -0.253906 L 9.277344 3.300781 C 8.332031 3.882812 7.304688 4.175781 6.199219 4.175781 L -3.949219 4.175781 L 6.582031 -24.875 L 37.277344 -24.875 L 32.433594 -11.535156 L 15.230469 -11.535156 L 15.230469 -15.707031 L 19.160156 -14.300781 L 18.082031 -11.28125 L 14.152344 -12.6875 L 14.152344 -16.863281 L 33.074219 -16.863281 L 28.289062 -3.839844 L 12.433594 -3.839844 L 12.433594 -8.011719 L 16.359375 -6.597656 L 14.421875 -1.222656 Z M 6.566406 -4.054688 L 9.503906 -12.1875 L 25.375 -12.1875 L 25.375 -8.011719 L 21.457031 -9.453125 L 23.175781 -14.128906 L 27.09375 -12.6875 L 27.09375 -8.515625 L 8.222656 -8.515625 L 12.292969 -19.882812 L 29.511719 -19.882812 L 29.511719 -15.707031 L 25.585938 -17.132812 L 27.398438 -22.125 L 31.324219 -20.703125 L 31.324219 -16.527344 L 9.507812 -16.527344 L 9.507812 -20.703125 L 13.433594 -19.277344 L 5.925781 1.421875 L 2.003906 0 L 2.003906 -4.175781 L 6.199219 -4.175781 C 5.730469 -4.175781 5.300781 -4.050781 4.902344 -3.808594 L 5.050781 -3.898438 L 7.546875 -5.164062 C 7.324219 -5.054688 7.128906 -4.902344 6.953125 -4.707031 C 6.792969 -4.527344 6.675781 -4.339844 6.597656 -4.136719 Z M 6.566406 -4.054688 "/></g></g></g></g><g fill="#000000" fill-opacity="1"><g transform="translate(27.573683, 33.07473)"><g><path d="M 14.972656 -1.089844 C 14.398438 0.347656 13.441406 1.445312 12.101562 2.203125 L 12.019531 2.25 L 9.613281 3.46875 L 7.726562 -0.253906 L 9.914062 3.300781 C 8.96875 3.882812 7.933594 4.175781 6.804688 4.175781 L -3.28125 4.175781 L 5.296875 -19.484375 C 5.605469 -20.289062 6.019531 -20.980469 6.539062 -21.5625 C 7.074219 -22.15625 7.707031 -22.640625 8.4375 -23.003906 L 10.683594 -24.160156 L 12.59375 -20.445312 L 10.40625 -24 C 11.351562 -24.585938 12.386719 -24.875 13.515625 -24.875 L 23.601562 -24.875 L 15 -1.152344 Z M 7.222656 -4.191406 L 11.097656 -2.640625 L 7.175781 -4.0625 L 13.726562 -22.125 L 17.648438 -20.703125 L 17.648438 -16.527344 L 13.515625 -16.527344 C 13.964844 -16.527344 14.386719 -16.648438 14.78125 -16.890625 L 14.644531 -16.808594 L 12.167969 -15.535156 C 12.390625 -15.648438 12.585938 -15.800781 12.761719 -15.996094 C 12.921875 -16.171875 13.050781 -16.386719 13.144531 -16.640625 L 6.59375 1.421875 L 2.671875 0 L 2.671875 -4.175781 L 6.804688 -4.175781 C 6.355469 -4.175781 5.933594 -4.050781 5.539062 -3.808594 L 5.6875 -3.898438 L 8.160156 -5.152344 L 10.046875 -1.429688 L 7.996094 -5.066406 C 7.632812 -4.859375 7.375 -4.566406 7.222656 -4.191406 Z M 7.222656 -4.191406 "/></g></g></g><g fill="#000000" fill-opacity="1"><g transform="translate(39.175063, 33.07473)"><g><path d="M 21.03125 -19.273438 L 15.878906 -5.121094 C 16.015625 -5.507812 16.0625 -5.90625 16.027344 -6.320312 C 15.980469 -6.871094 15.800781 -7.371094 15.488281 -7.824219 C 15.164062 -8.289062 14.746094 -8.644531 14.226562 -8.890625 C 13.828125 -9.074219 13.433594 -9.167969 13.039062 -9.167969 L 30.125 -9.167969 L 25.28125 4.175781 L 8.585938 4.175781 C 7.875 4.175781 7.199219 4.078125 6.558594 3.882812 C 5.648438 3.605469 4.863281 3.136719 4.203125 2.472656 L 7.15625 -0.476562 L 4.53125 2.769531 L 1.527344 0.339844 L 1.375 0.183594 C 0.425781 -0.761719 -0.132812 -1.914062 -0.308594 -3.269531 C -0.441406 -4.3125 -0.335938 -5.359375 0.015625 -6.40625 L 0.03125 -6.460938 L 6.707031 -24.875 L 23.070312 -24.875 Z M 13.1875 -22.128906 L 17.109375 -20.703125 L 17.109375 -16.527344 L 9.636719 -16.527344 L 9.636719 -20.703125 L 13.558594 -19.277344 L 7.898438 -3.664062 L 3.976562 -5.089844 L 7.933594 -3.769531 C 7.988281 -3.925781 8 -4.113281 7.972656 -4.332031 C 7.902344 -4.859375 7.671875 -5.320312 7.277344 -5.71875 L 4.324219 -2.765625 L 6.949219 -6.011719 L 9.949219 -3.582031 L 10.105469 -3.429688 C 9.785156 -3.75 9.410156 -3.976562 8.992188 -4.105469 C 8.839844 -4.152344 8.703125 -4.175781 8.585938 -4.175781 L 22.355469 -4.175781 L 22.355469 0 L 18.429688 -1.425781 L 20.242188 -6.417969 L 24.167969 -4.992188 L 24.167969 -0.820312 L 13.039062 -0.820312 C 12.195312 -0.820312 11.414062 -0.988281 10.6875 -1.328125 C 9.839844 -1.722656 9.148438 -2.308594 8.617188 -3.082031 C 8.09375 -3.84375 7.789062 -4.679688 7.710938 -5.597656 C 7.644531 -6.375 7.75 -7.167969 8.035156 -7.980469 Z M 13.1875 -22.128906 "/></g></g></g><g fill="#000000" fill-opacity="1"><g transform="translate(61.64734, 33.07473)"><g><path d="M 19.097656 -14.300781 L 18.015625 -11.28125 L 14.085938 -12.6875 L 14.085938 -16.863281 L 33.488281 -16.863281 L 28.703125 -3.839844 L 12.371094 -3.839844 L 12.371094 -8.011719 L 16.285156 -6.566406 L 15.746094 -5.105469 C 15.882812 -5.5 15.9375 -5.90625 15.898438 -6.320312 C 15.851562 -6.871094 15.671875 -7.371094 15.359375 -7.824219 C 15.039062 -8.289062 14.617188 -8.644531 14.097656 -8.890625 C 13.703125 -9.074219 13.304688 -9.167969 12.910156 -9.167969 L 32 -9.167969 L 27.15625 4.175781 L 8.457031 4.175781 C 7.679688 4.175781 6.953125 4.0625 6.289062 3.839844 C 5.378906 3.539062 4.609375 3.046875 3.976562 2.371094 L 7.027344 -0.476562 L 4.402344 2.769531 L 1.402344 0.339844 L 1.246094 0.183594 C 0.296875 -0.761719 -0.261719 -1.914062 -0.433594 -3.269531 C -0.570312 -4.3125 -0.460938 -5.359375 -0.113281 -6.40625 L -0.09375 -6.460938 L 6.582031 -24.875 L 37.691406 -24.875 L 32.847656 -11.535156 L 15.167969 -11.535156 L 15.167969 -15.707031 Z M 12.230469 -19.882812 L 29.921875 -19.882812 L 29.921875 -15.707031 L 26 -17.132812 L 27.8125 -22.125 L 31.734375 -20.703125 L 31.734375 -16.527344 L 9.507812 -16.527344 L 9.507812 -20.703125 L 13.433594 -19.277344 L 7.773438 -3.664062 L 3.847656 -5.089844 L 7.808594 -3.769531 C 7.859375 -3.925781 7.871094 -4.113281 7.84375 -4.332031 C 7.777344 -4.859375 7.546875 -5.320312 7.148438 -5.71875 L 4.199219 -2.765625 L 6.824219 -6.011719 L 9.878906 -3.539062 L 10.078125 -3.324219 C 9.746094 -3.683594 9.359375 -3.933594 8.929688 -4.078125 C 8.738281 -4.140625 8.582031 -4.175781 8.457031 -4.175781 L 24.230469 -4.175781 L 24.230469 0 L 20.308594 -1.425781 L 22.121094 -6.417969 L 26.042969 -4.992188 L 26.042969 -0.820312 L 12.910156 -0.820312 C 12.070312 -0.820312 11.285156 -0.988281 10.5625 -1.328125 C 9.714844 -1.722656 9.023438 -2.308594 8.488281 -3.082031 C 7.964844 -3.84375 7.664062 -4.679688 7.582031 -5.597656 C 7.515625 -6.375 7.625 -7.175781 7.914062 -7.996094 L 9.460938 -12.1875 L 25.789062 -12.1875 L 25.789062 -8.011719 L 21.871094 -9.453125 L 23.589844 -14.128906 L 27.507812 -12.6875 L 27.507812 -8.515625 L 8.160156 -8.515625 L 11.238281 -17.117188 Z M 12.230469 -19.882812 "/></g></g></g><g fill="#000000" fill-opacity="1"><g transform="translate(86.440016, 33.07473)"><g/></g></g><g fill="#000000" fill-opacity="1"><g transform="translate(98.58248, 33.07473)"><g><path d="M 9.476562 4.175781 L -3.949219 4.175781 L 6.582031 -24.875 L 25.535156 -24.875 C 29.03125 -24.875 31.703125 -24.011719 33.542969 -22.28125 C 34.183594 -21.679688 34.691406 -20.984375 35.066406 -20.203125 C 35.425781 -19.449219 35.644531 -18.640625 35.730469 -17.777344 C 35.867188 -16.394531 35.640625 -14.894531 35.058594 -13.273438 L 33.929688 -10.246094 C 33.71875 -9.667969 33.433594 -9.128906 33.070312 -8.621094 C 32.800781 -8.25 32.46875 -7.871094 32.078125 -7.480469 L 31.847656 -7.25 L 29.011719 -5.179688 C 27.535156 -4.074219 25.996094 -3.519531 24.390625 -3.519531 L 22.386719 -3.519531 L 22.386719 -7.695312 L 26.015625 -9.757812 L 31.195312 -0.636719 L 29.59375 4.175781 L 14.644531 4.175781 L 9.21875 -8.109375 L 13.039062 -9.792969 L 16.960938 -8.367188 L 12.398438 4.175781 Z M 9.476562 -4.175781 L 9.476562 0 L 5.554688 -1.425781 L 12.664062 -20.976562 L 21.179688 -1.6875 L 17.363281 0 L 17.363281 -4.175781 L 26.585938 -4.175781 L 26.585938 0 L 22.625 -1.320312 L 22.6875 -1.511719 L 26.648438 -0.191406 L 23.019531 1.871094 L 15.21875 -11.871094 L 24.390625 -11.871094 C 24.195312 -11.871094 24.035156 -11.84375 23.898438 -11.789062 L 23.898438 -11.792969 C 23.941406 -11.816406 24.003906 -11.859375 24.09375 -11.929688 L 26.671875 -13.804688 L 29.128906 -10.429688 L 26.175781 -13.382812 C 26.226562 -13.433594 26.269531 -13.476562 26.300781 -13.511719 C 26.210938 -13.386719 26.148438 -13.269531 26.105469 -13.160156 L 27.207031 -16.109375 C 27.304688 -16.382812 27.371094 -16.621094 27.402344 -16.816406 C 27.414062 -16.875 27.417969 -16.925781 27.421875 -16.964844 C 27.433594 -16.855469 27.46875 -16.738281 27.53125 -16.609375 C 27.609375 -16.449219 27.707031 -16.308594 27.828125 -16.195312 L 27.824219 -16.191406 C 27.738281 -16.234375 27.625 -16.277344 27.480469 -16.320312 C 26.992188 -16.457031 26.34375 -16.527344 25.535156 -16.527344 L 9.507812 -16.527344 L 9.507812 -20.703125 L 13.433594 -19.277344 L 5.925781 1.421875 L 2.003906 0 L 2.003906 -4.175781 Z M 19.09375 -14.292969 L 17.410156 -9.617188 L 13.484375 -11.035156 L 13.484375 -15.207031 L 20.667969 -15.207031 C 20.398438 -15.207031 20.140625 -15.164062 19.894531 -15.074219 C 19.726562 -15.011719 19.585938 -14.9375 19.46875 -14.851562 C 19.394531 -14.792969 19.316406 -14.714844 19.238281 -14.617188 C 19.101562 -14.445312 18.996094 -14.253906 18.914062 -14.035156 L 19.449219 -15.578125 L 19.472656 -15.636719 C 19.351562 -15.324219 19.300781 -14.972656 19.316406 -14.585938 C 19.34375 -13.980469 19.527344 -13.425781 19.871094 -12.921875 C 20.195312 -12.441406 20.621094 -12.078125 21.148438 -11.828125 C 21.558594 -11.632812 21.972656 -11.535156 22.386719 -11.535156 L 15.167969 -11.535156 L 15.167969 -15.707031 Z M 12.234375 -19.882812 L 22.386719 -19.882812 C 23.226562 -19.882812 24.007812 -19.710938 24.730469 -19.367188 C 25.570312 -18.96875 26.253906 -18.382812 26.777344 -17.609375 C 27.324219 -16.804688 27.617188 -15.917969 27.65625 -14.941406 C 27.691406 -14.183594 27.5625 -13.421875 27.273438 -12.664062 L 23.371094 -14.152344 L 27.316406 -12.78125 L 26.75 -11.148438 C 26.316406 -9.976562 25.558594 -8.984375 24.476562 -8.171875 C 23.3125 -7.296875 22.042969 -6.859375 20.667969 -6.859375 L 7.539062 -6.859375 L 11.242188 -17.125 Z M 12.234375 -19.882812 "/></g></g></g><g fill="#000000" fill-opacity="1"><g transform="translate(124.392323, 33.07473)"><g><path d="M 19.097656 -14.300781 L 18.015625 -11.28125 L 14.085938 -12.6875 L 14.085938 -16.863281 L 33.488281 -16.863281 L 28.703125 -3.839844 L 12.371094 -3.839844 L 12.371094 -8.011719 L 16.285156 -6.566406 L 15.746094 -5.105469 C 15.882812 -5.5 15.9375 -5.90625 15.898438 -6.320312 C 15.851562 -6.871094 15.671875 -7.371094 15.359375 -7.824219 C 15.039062 -8.289062 14.617188 -8.644531 14.097656 -8.890625 C 13.703125 -9.074219 13.304688 -9.167969 12.910156 -9.167969 L 32 -9.167969 L 27.15625 4.175781 L 8.457031 4.175781 C 7.679688 4.175781 6.953125 4.0625 6.289062 3.839844 C 5.378906 3.539062 4.609375 3.046875 3.976562 2.371094 L 7.027344 -0.476562 L 4.402344 2.769531 L 1.402344 0.339844 L 1.246094 0.183594 C 0.296875 -0.761719 -0.261719 -1.914062 -0.433594 -3.269531 C -0.570312 -4.3125 -0.460938 -5.359375 -0.113281 -6.40625 L -0.09375 -6.460938 L 6.582031 -24.875 L 37.691406 -24.875 L 32.847656 -11.535156 L 15.167969 -11.535156 L 15.167969 -15.707031 Z M 12.230469 -19.882812 L 29.921875 -19.882812 L 29.921875 -15.707031 L 26 -17.132812 L 27.8125 -22.125 L 31.734375 -20.703125 L 31.734375 -16.527344 L 9.507812 -16.527344 L 9.507812 -20.703125 L 13.433594 -19.277344 L 7.773438 -3.664062 L 3.847656 -5.089844 L 7.808594 -3.769531 C 7.859375 -3.925781 7.871094 -4.113281 7.84375 -4.332031 C 7.777344 -4.859375 7.546875 -5.320312 7.148438 -5.71875 L 4.199219 -2.765625 L 6.824219 -6.011719 L 9.878906 -3.539062 L 10.078125 -3.324219 C 9.746094 -3.683594 9.359375 -3.933594 8.929688 -4.078125 C 8.738281 -4.140625 8.582031 -4.175781 8.457031 -4.175781 L 24.230469 -4.175781 L 24.230469 0 L 20.308594 -1.425781 L 22.121094 -6.417969 L 26.042969 -4.992188 L 26.042969 -0.820312 L 12.910156 -0.820312 C 12.070312 -0.820312 11.285156 -0.988281 10.5625 -1.328125 C 9.714844 -1.722656 9.023438 -2.308594 8.488281 -3.082031 C 7.964844 -3.84375 7.664062 -4.679688 7.582031 -5.597656 C 7.515625 -6.375 7.625 -7.175781 7.914062 -7.996094 L 9.460938 -12.1875 L 25.789062 -12.1875 L 25.789062 -8.011719 L 21.871094 -9.453125 L 23.589844 -14.128906 L 27.507812 -12.6875 L 27.507812 -8.515625 L 8.160156 -8.515625 L 11.238281 -17.117188 Z M 12.230469 -19.882812 "/></g></g></g><g fill="#000000" fill-opacity="1"><g transform="translate(149.184999, 33.07473)"><g><path d="M 9.476562 4.175781 L -3.949219 4.175781 L 6.582031 -24.875 L 18.78125 -24.875 L 26.714844 -10.4375 L 23.054688 -8.425781 L 19.128906 -9.851562 L 24.582031 -24.875 L 40.933594 -24.875 L 32.351562 -1.214844 C 32.042969 -0.414062 31.628906 0.277344 31.109375 0.859375 C 30.574219 1.457031 29.945312 1.9375 29.214844 2.300781 L 26.914062 3.46875 L 25.027344 -0.253906 L 27.214844 3.300781 C 26.265625 3.882812 25.242188 4.175781 24.136719 4.175781 L 18.285156 4.175781 L 10.140625 -9.648438 L 13.738281 -11.765625 L 17.660156 -10.34375 L 12.402344 4.175781 Z M 9.476562 -4.175781 L 9.476562 0 L 5.550781 -1.421875 L 12.832031 -21.523438 L 24.265625 -2.117188 L 20.667969 0 L 20.667969 -4.175781 L 24.136719 -4.175781 C 23.667969 -4.175781 23.234375 -4.050781 22.839844 -3.808594 L 22.984375 -3.898438 L 25.480469 -5.164062 C 25.261719 -5.054688 25.0625 -4.902344 24.890625 -4.707031 C 24.730469 -4.527344 24.601562 -4.3125 24.503906 -4.0625 L 31.054688 -22.125 L 34.980469 -20.703125 L 34.980469 -16.527344 L 27.507812 -16.527344 L 27.507812 -20.703125 L 31.429688 -19.277344 L 23.835938 1.664062 L 12.65625 -18.691406 L 16.3125 -20.703125 L 16.3125 -16.527344 L 9.507812 -16.527344 L 9.507812 -20.703125 L 13.433594 -19.277344 L 5.925781 1.421875 L 2.003906 0 L 2.003906 -4.175781 Z M 9.476562 -4.175781 "/></g></g></g><g fill="#000000" fill-opacity="1"><g transform="translate(177.442378, 33.07473)"><g><path d="M 26.710938 4.175781 L 13.296875 4.175781 L 16.710938 -5.296875 L 20.636719 -3.878906 L 20.636719 0.292969 L 11.691406 0.292969 L 8.6875 -2.707031 L 11.636719 -5.660156 L 15.390625 -3.828125 L 11.476562 4.175781 L -5.351562 4.175781 L 5.21875 -17.445312 L 8.96875 -15.613281 L 5.140625 -17.277344 C 5.515625 -18.140625 6.007812 -18.933594 6.625 -19.660156 C 7.277344 -20.433594 8.039062 -21.078125 8.910156 -21.59375 L 9.046875 -21.671875 L 13.703125 -23.96875 L 15.550781 -20.222656 L 13.402344 -23.804688 C 14.59375 -24.519531 15.882812 -24.875 17.265625 -24.875 L 26.773438 -24.875 C 27.484375 -24.875 28.160156 -24.777344 28.800781 -24.582031 C 29.804688 -24.277344 30.644531 -23.742188 31.316406 -22.972656 L 28.175781 -20.222656 L 31.011719 -23.285156 L 34.476562 -20.074219 C 35.484375 -19.136719 36.097656 -17.984375 36.304688 -16.613281 C 36.480469 -15.496094 36.359375 -14.371094 35.945312 -13.234375 L 29.640625 4.175781 Z M 26.710938 -4.175781 L 26.710938 0 L 22.785156 -1.421875 L 28.097656 -16.085938 C 28.023438 -15.882812 28.011719 -15.636719 28.054688 -15.34375 C 28.140625 -14.800781 28.386719 -14.335938 28.804688 -13.949219 L 25.175781 -17.3125 L 25.03125 -17.476562 C 25.40625 -17.046875 25.855469 -16.753906 26.371094 -16.597656 C 26.523438 -16.550781 26.65625 -16.527344 26.773438 -16.527344 L 17.265625 -16.527344 C 17.421875 -16.527344 17.566406 -16.566406 17.699219 -16.644531 L 17.550781 -16.558594 L 12.878906 -14.253906 L 11.035156 -18 L 13.15625 -14.40625 C 13.097656 -14.367188 13.042969 -14.324219 12.996094 -14.269531 C 12.910156 -14.167969 12.84375 -14.0625 12.796875 -13.949219 L 12.757812 -13.863281 L 5.085938 1.832031 L 1.335938 0 L 1.335938 -4.175781 L 8.871094 -4.175781 L 8.871094 0 L 5.121094 -1.832031 L 10.457031 -12.746094 L 16.371094 -6.832031 L 13.417969 -3.878906 L 13.417969 -8.054688 L 26.582031 -8.054688 L 23.164062 1.417969 L 19.238281 0 L 19.238281 -4.175781 Z M 19.664062 -12.285156 L 16.804688 -6.558594 L 13.070312 -8.425781 L 13.070312 -12.601562 L 22.292969 -12.601562 L 22.292969 -8.425781 L 18.367188 -9.84375 L 20.457031 -15.636719 L 20.484375 -15.699219 C 20.335938 -15.335938 20.277344 -14.9375 20.300781 -14.5 C 20.335938 -13.90625 20.523438 -13.367188 20.859375 -12.878906 C 21.179688 -12.410156 21.601562 -12.054688 22.121094 -11.8125 C 22.515625 -11.628906 22.914062 -11.535156 23.308594 -11.535156 L 18.15625 -11.535156 C 18.421875 -11.535156 18.679688 -11.578125 18.929688 -11.667969 C 19.117188 -11.738281 19.28125 -11.824219 19.417969 -11.929688 C 19.480469 -11.980469 19.539062 -12.046875 19.589844 -12.140625 L 15.929688 -14.152344 Z M 12.199219 -16.015625 L 12.234375 -16.089844 L 12.273438 -16.164062 C 12.789062 -17.101562 13.484375 -17.902344 14.351562 -18.566406 C 15.503906 -19.445312 16.773438 -19.882812 18.15625 -19.882812 L 23.308594 -19.882812 C 24.148438 -19.882812 24.933594 -19.714844 25.65625 -19.375 C 26.503906 -18.976562 27.195312 -18.390625 27.730469 -17.617188 C 28.277344 -16.824219 28.582031 -15.945312 28.636719 -14.984375 C 28.683594 -14.183594 28.550781 -13.386719 28.234375 -12.601562 L 24.359375 -14.152344 L 28.285156 -12.734375 L 25.222656 -4.253906 L 6.316406 -4.253906 Z M 12.199219 -16.015625 "/></g></g></g><g fill="#000000" fill-opacity="1"><g transform="translate(204.936895, 33.07473)"><g><path d="M 16.820312 4.175781 L 10.289062 4.175781 L 9.441406 -11.765625 L 13.609375 -11.988281 L 17.589844 -10.726562 L 16.101562 -6.035156 L 12.402344 4.175781 L -3.949219 4.175781 L 6.582031 -24.875 L 21.65625 -24.875 L 22.359375 -7.480469 L 18.1875 -7.3125 L 14.875 -9.851562 L 26.367188 -24.875 L 42.523438 -24.875 L 31.992188 4.175781 L 15.640625 4.175781 L 20.371094 -8.886719 L 22.3125 -13.585938 L 26.171875 -11.988281 L 29.460938 -9.421875 L 18.859375 4.175781 Z M 16.820312 -4.175781 L 16.820312 0 L 13.53125 -2.566406 L 22.878906 -14.554688 L 30.027344 -10.390625 L 28.121094 -5.78125 L 24.261719 -7.378906 L 28.1875 -5.957031 L 25.515625 1.421875 L 21.59375 0 L 21.59375 -4.175781 L 29.066406 -4.175781 L 29.066406 0 L 25.140625 -1.421875 L 32.644531 -22.125 L 36.570312 -20.703125 L 36.570312 -16.527344 L 28.429688 -16.527344 L 28.429688 -20.703125 L 31.746094 -18.164062 L 14.484375 4.398438 L 13.476562 -20.53125 L 17.648438 -20.703125 L 17.648438 -16.527344 L 9.507812 -16.527344 L 9.507812 -20.703125 L 13.433594 -19.277344 L 5.925781 1.421875 L 2.003906 0 L 2.003906 -4.175781 L 9.476562 -4.175781 L 9.476562 0 L 5.550781 -1.421875 L 8.222656 -8.796875 L 12.148438 -7.378906 L 8.167969 -8.640625 L 9.632812 -13.25 L 17.777344 -12.210938 L 18.414062 -0.222656 L 14.246094 0 L 14.246094 -4.175781 Z M 16.820312 -4.175781 "/></g></g></g><g fill="#000000" fill-opacity="1"><g transform="translate(234.783595, 33.07473)"><g><path d="M 19.097656 -14.300781 L 18.015625 -11.28125 L 14.085938 -12.6875 L 14.085938 -16.863281 L 33.488281 -16.863281 L 28.703125 -3.839844 L 12.371094 -3.839844 L 12.371094 -8.011719 L 16.285156 -6.566406 L 15.746094 -5.105469 C 15.882812 -5.5 15.9375 -5.90625 15.898438 -6.320312 C 15.851562 -6.871094 15.671875 -7.371094 15.359375 -7.824219 C 15.039062 -8.289062 14.617188 -8.644531 14.097656 -8.890625 C 13.703125 -9.074219 13.304688 -9.167969 12.910156 -9.167969 L 32 -9.167969 L 27.15625 4.175781 L 8.457031 4.175781 C 7.679688 4.175781 6.953125 4.0625 6.289062 3.839844 C 5.378906 3.539062 4.609375 3.046875 3.976562 2.371094 L 7.027344 -0.476562 L 4.402344 2.769531 L 1.402344 0.339844 L 1.246094 0.183594 C 0.296875 -0.761719 -0.261719 -1.914062 -0.433594 -3.269531 C -0.570312 -4.3125 -0.460938 -5.359375 -0.113281 -6.40625 L -0.09375 -6.460938 L 6.582031 -24.875 L 37.691406 -24.875 L 32.847656 -11.535156 L 15.167969 -11.535156 L 15.167969 -15.707031 Z M 12.230469 -19.882812 L 29.921875 -19.882812 L 29.921875 -15.707031 L 26 -17.132812 L 27.8125 -22.125 L 31.734375 -20.703125 L 31.734375 -16.527344 L 9.507812 -16.527344 L 9.507812 -20.703125 L 13.433594 -19.277344 L 7.773438 -3.664062 L 3.847656 -5.089844 L 7.808594 -3.769531 C 7.859375 -3.925781 7.871094 -4.113281 7.84375 -4.332031 C 7.777344 -4.859375 7.546875 -5.320312 7.148438 -5.71875 L 4.199219 -2.765625 L 6.824219 -6.011719 L 9.878906 -3.539062 L 10.078125 -3.324219 C 9.746094 -3.683594 9.359375 -3.933594 8.929688 -4.078125 C 8.738281 -4.140625 8.582031 -4.175781 8.457031 -4.175781 L 24.230469 -4.175781 L 24.230469 0 L 20.308594 -1.425781 L 22.121094 -6.417969 L 26.042969 -4.992188 L 26.042969 -0.820312 L 12.910156 -0.820312 C 12.070312 -0.820312 11.285156 -0.988281 10.5625 -1.328125 C 9.714844 -1.722656 9.023438 -2.308594 8.488281 -3.082031 C 7.964844 -3.84375 7.664062 -4.679688 7.582031 -5.597656 C 7.515625 -6.375 7.625 -7.175781 7.914062 -7.996094 L 9.460938 -12.1875 L 25.789062 -12.1875 L 25.789062 -8.011719 L 21.871094 -9.453125 L 23.589844 -14.128906 L 27.507812 -12.6875 L 27.507812 -8.515625 L 8.160156 -8.515625 L 11.238281 -17.117188 Z M 12.230469 -19.882812 "/></g></g></g><g fill="#000000" fill-opacity="1"><g transform="translate(259.576271, 33.07473)"><g><path d="M 9.476562 4.175781 L -3.949219 4.175781 L 6.582031 -24.875 L 25.535156 -24.875 C 29.03125 -24.875 31.703125 -24.011719 33.542969 -22.28125 C 34.183594 -21.679688 34.691406 -20.984375 35.066406 -20.203125 C 35.425781 -19.449219 35.644531 -18.640625 35.730469 -17.777344 C 35.867188 -16.394531 35.640625 -14.894531 35.058594 -13.273438 L 33.929688 -10.246094 C 33.71875 -9.667969 33.433594 -9.128906 33.070312 -8.621094 C 32.800781 -8.25 32.46875 -7.871094 32.078125 -7.480469 L 31.847656 -7.25 L 29.011719 -5.179688 C 27.535156 -4.074219 25.996094 -3.519531 24.390625 -3.519531 L 22.386719 -3.519531 L 22.386719 -7.695312 L 26.015625 -9.757812 L 31.195312 -0.636719 L 29.59375 4.175781 L 14.644531 4.175781 L 9.21875 -8.109375 L 13.039062 -9.792969 L 16.960938 -8.367188 L 12.398438 4.175781 Z M 9.476562 -4.175781 L 9.476562 0 L 5.554688 -1.425781 L 12.664062 -20.976562 L 21.179688 -1.6875 L 17.363281 0 L 17.363281 -4.175781 L 26.585938 -4.175781 L 26.585938 0 L 22.625 -1.320312 L 22.6875 -1.511719 L 26.648438 -0.191406 L 23.019531 1.871094 L 15.21875 -11.871094 L 24.390625 -11.871094 C 24.195312 -11.871094 24.035156 -11.84375 23.898438 -11.789062 L 23.898438 -11.792969 C 23.941406 -11.816406 24.003906 -11.859375 24.09375 -11.929688 L 26.671875 -13.804688 L 29.128906 -10.429688 L 26.175781 -13.382812 C 26.226562 -13.433594 26.269531 -13.476562 26.300781 -13.511719 C 26.210938 -13.386719 26.148438 -13.269531 26.105469 -13.160156 L 27.207031 -16.109375 C 27.304688 -16.382812 27.371094 -16.621094 27.402344 -16.816406 C 27.414062 -16.875 27.417969 -16.925781 27.421875 -16.964844 C 27.433594 -16.855469 27.46875 -16.738281 27.53125 -16.609375 C 27.609375 -16.449219 27.707031 -16.308594 27.828125 -16.195312 L 27.824219 -16.191406 C 27.738281 -16.234375 27.625 -16.277344 27.480469 -16.320312 C 26.992188 -16.457031 26.34375 -16.527344 25.535156 -16.527344 L 9.507812 -16.527344 L 9.507812 -20.703125 L 13.433594 -19.277344 L 5.925781 1.421875 L 2.003906 0 L 2.003906 -4.175781 Z M 19.09375 -14.292969 L 17.410156 -9.617188 L 13.484375 -11.035156 L 13.484375 -15.207031 L 20.667969 -15.207031 C 20.398438 -15.207031 20.140625 -15.164062 19.894531 -15.074219 C 19.726562 -15.011719 19.585938 -14.9375 19.46875 -14.851562 C 19.394531 -14.792969 19.316406 -14.714844 19.238281 -14.617188 C 19.101562 -14.445312 18.996094 -14.253906 18.914062 -14.035156 L 19.449219 -15.578125 L 19.472656 -15.636719 C 19.351562 -15.324219 19.300781 -14.972656 19.316406 -14.585938 C 19.34375 -13.980469 19.527344 -13.425781 19.871094 -12.921875 C 20.195312 -12.441406 20.621094 -12.078125 21.148438 -11.828125 C 21.558594 -11.632812 21.972656 -11.535156 22.386719 -11.535156 L 15.167969 -11.535156 L 15.167969 -15.707031 Z M 12.234375 -19.882812 L 22.386719 -19.882812 C 23.226562 -19.882812 24.007812 -19.710938 24.730469 -19.367188 C 25.570312 -18.96875 26.253906 -18.382812 26.777344 -17.609375 C 27.324219 -16.804688 27.617188 -15.917969 27.65625 -14.941406 C 27.691406 -14.183594 27.5625 -13.421875 27.273438 -12.664062 L 23.371094 -14.152344 L 27.316406 -12.78125 L 26.75 -11.148438 C 26.316406 -9.976562 25.558594 -8.984375 24.476562 -8.171875 C 23.3125 -7.296875 22.042969 -6.859375 20.667969 -6.859375 L 7.539062 -6.859375 L 11.242188 -17.125 Z M 12.234375 -19.882812 "/></g></g></g><g fill="#b5ff00" fill-opacity="1"><g transform="translate(3.639224, 33.07473)"><g><path d="M 10.5 -2.640625 C 10.28125 -2.085938 9.914062 -1.6875 9.40625 -1.4375 L 7.09375 -0.25 C 6.8125 -0.0820312 6.515625 0 6.203125 0 L 2 0 L 9.5 -20.703125 L 31.3125 -20.703125 L 29.5 -15.703125 L 15.234375 -15.703125 L 14.15625 -12.6875 L 27.09375 -12.6875 L 25.375 -8.015625 L 12.4375 -8.015625 Z M 10.5 -2.640625 "/></g></g></g><g fill="#b5ff00" fill-opacity="1"><g transform="translate(27.573683, 33.07473)"><g><path d="M 11.09375 -2.640625 C 10.882812 -2.109375 10.535156 -1.707031 10.046875 -1.4375 L 7.734375 -0.25 C 7.453125 -0.0820312 7.140625 0 6.796875 0 L 2.671875 0 L 9.21875 -18.0625 C 9.4375 -18.613281 9.796875 -19.015625 10.296875 -19.265625 L 12.59375 -20.453125 C 12.863281 -20.617188 13.171875 -20.703125 13.515625 -20.703125 L 17.640625 -20.703125 Z M 11.09375 -2.640625 "/></g></g></g><g fill="#b5ff00" fill-opacity="1"><g transform="translate(39.175063, 33.07473)"><g><path d="M 17.109375 -20.703125 L 11.953125 -6.546875 C 11.804688 -6.128906 11.835938 -5.765625 12.046875 -5.453125 C 12.265625 -5.140625 12.59375 -4.984375 13.03125 -4.984375 L 24.171875 -4.984375 L 22.359375 0 L 8.578125 0 C 8.285156 0 8.015625 -0.0351562 7.765625 -0.109375 C 7.523438 -0.179688 7.320312 -0.304688 7.15625 -0.484375 L 4.328125 -2.765625 C 4.046875 -3.046875 3.878906 -3.390625 3.828125 -3.796875 C 3.773438 -4.210938 3.820312 -4.644531 3.96875 -5.09375 L 9.640625 -20.703125 Z M 17.109375 -20.703125 "/></g></g></g><g fill="#b5ff00" fill-opacity="1"><g transform="translate(61.64734, 33.07473)"><g><path d="M 15.171875 -15.703125 L 14.09375 -12.6875 L 27.5 -12.6875 L 25.78125 -8.015625 L 12.375 -8.015625 L 11.828125 -6.546875 C 11.679688 -6.128906 11.710938 -5.765625 11.921875 -5.453125 C 12.128906 -5.140625 12.457031 -4.984375 12.90625 -4.984375 L 26.046875 -4.984375 L 24.234375 0 L 8.453125 0 C 7.796875 0 7.320312 -0.160156 7.03125 -0.484375 L 4.203125 -2.765625 C 3.921875 -3.046875 3.753906 -3.390625 3.703125 -3.796875 C 3.648438 -4.210938 3.695312 -4.644531 3.84375 -5.09375 L 9.5 -20.703125 L 31.734375 -20.703125 L 29.921875 -15.703125 Z M 15.171875 -15.703125 "/></g></g></g><g fill="#b5ff00" fill-opacity="1"><g transform="translate(86.440016, 33.07473)"><g/></g></g><g fill="#b5ff00" fill-opacity="1"><g transform="translate(98.58248, 33.07473)"><g><path d="M 9.46875 0 L 2 0 L 9.5 -20.703125 L 25.53125 -20.703125 C 27.925781 -20.703125 29.640625 -20.210938 30.671875 -19.234375 C 31.710938 -18.265625 31.863281 -16.75 31.125 -14.6875 L 30.015625 -11.703125 C 29.929688 -11.460938 29.816406 -11.25 29.671875 -11.0625 C 29.535156 -10.875 29.351562 -10.660156 29.125 -10.421875 L 26.546875 -8.546875 C 25.785156 -7.972656 25.066406 -7.6875 24.390625 -7.6875 L 22.390625 -7.6875 L 26.640625 -0.1875 L 26.578125 0 L 17.359375 0 L 13.03125 -9.796875 Z M 15.171875 -15.703125 L 13.484375 -11.03125 L 20.671875 -11.03125 C 21.109375 -11.03125 21.539062 -11.1875 21.96875 -11.5 C 22.394531 -11.820312 22.679688 -12.1875 22.828125 -12.59375 L 23.375 -14.15625 C 23.539062 -14.59375 23.519531 -14.957031 23.3125 -15.25 C 23.113281 -15.550781 22.804688 -15.703125 22.390625 -15.703125 Z M 15.171875 -15.703125 "/></g></g></g><g fill="#b5ff00" fill-opacity="1"><g transform="translate(124.392323, 33.07473)"><g><path d="M 15.171875 -15.703125 L 14.09375 -12.6875 L 27.5 -12.6875 L 25.78125 -8.015625 L 12.375 -8.015625 L 11.828125 -6.546875 C 11.679688 -6.128906 11.710938 -5.765625 11.921875 -5.453125 C 12.128906 -5.140625 12.457031 -4.984375 12.90625 -4.984375 L 26.046875 -4.984375 L 24.234375 0 L 8.453125 0 C 7.796875 0 7.320312 -0.160156 7.03125 -0.484375 L 4.203125 -2.765625 C 3.921875 -3.046875 3.753906 -3.390625 3.703125 -3.796875 C 3.648438 -4.210938 3.695312 -4.644531 3.84375 -5.09375 L 9.5 -20.703125 L 31.734375 -20.703125 L 29.921875 -15.703125 Z M 15.171875 -15.703125 "/></g></g></g><g fill="#b5ff00" fill-opacity="1"><g transform="translate(149.184999, 33.07473)"><g><path d="M 9.46875 0 L 2 0 L 9.5 -20.703125 L 16.3125 -20.703125 L 23.046875 -8.421875 L 27.5 -20.703125 L 34.984375 -20.703125 L 28.421875 -2.640625 C 28.210938 -2.085938 27.851562 -1.6875 27.34375 -1.4375 L 25.03125 -0.25 C 24.75 -0.0820312 24.453125 0 24.140625 0 L 20.671875 0 L 13.734375 -11.765625 Z M 9.46875 0 "/></g></g></g><g fill="#b5ff00" fill-opacity="1"><g transform="translate(177.442378, 33.07473)"><g><path d="M 26.703125 0 L 19.234375 0 L 20.640625 -3.875 L 13.421875 -3.875 L 11.640625 -5.65625 L 8.875 0 L 1.328125 0 L 8.96875 -15.609375 C 9.175781 -16.097656 9.453125 -16.546875 9.796875 -16.953125 C 10.148438 -17.367188 10.5625 -17.71875 11.03125 -18 L 15.546875 -20.21875 C 16.078125 -20.539062 16.648438 -20.703125 17.265625 -20.703125 L 26.765625 -20.703125 C 27.066406 -20.703125 27.335938 -20.664062 27.578125 -20.59375 C 27.828125 -20.519531 28.023438 -20.394531 28.171875 -20.21875 L 31.640625 -17.015625 C 31.929688 -16.734375 32.109375 -16.382812 32.171875 -15.96875 C 32.242188 -15.5625 32.191406 -15.125 32.015625 -14.65625 Z M 15.9375 -14.15625 L 13.0625 -8.421875 L 22.296875 -8.421875 L 24.359375 -14.15625 C 24.523438 -14.570312 24.5 -14.929688 24.28125 -15.234375 C 24.070312 -15.546875 23.75 -15.703125 23.3125 -15.703125 L 18.15625 -15.703125 C 17.707031 -15.703125 17.28125 -15.546875 16.875 -15.234375 C 16.476562 -14.929688 16.164062 -14.570312 15.9375 -14.15625 Z M 15.9375 -14.15625 "/></g></g></g><g fill="#b5ff00" fill-opacity="1"><g transform="translate(204.936895, 33.07473)"><g><path d="M 16.828125 0 L 14.25 0 L 13.609375 -11.984375 L 12.140625 -7.375 L 9.46875 0 L 2 0 L 9.5 -20.703125 L 17.640625 -20.703125 L 18.1875 -7.3125 L 28.421875 -20.703125 L 36.5625 -20.703125 L 29.0625 0 L 21.59375 0 L 24.265625 -7.375 L 26.171875 -11.984375 Z M 16.828125 0 "/></g></g></g><g fill="#b5ff00" fill-opacity="1"><g transform="translate(234.783595, 33.07473)"><g><path d="M 15.171875 -15.703125 L 14.09375 -12.6875 L 27.5 -12.6875 L 25.78125 -8.015625 L 12.375 -8.015625 L 11.828125 -6.546875 C 11.679688 -6.128906 11.710938 -5.765625 11.921875 -5.453125 C 12.128906 -5.140625 12.457031 -4.984375 12.90625 -4.984375 L 26.046875 -4.984375 L 24.234375 0 L 8.453125 0 C 7.796875 0 7.320312 -0.160156 7.03125 -0.484375 L 4.203125 -2.765625 C 3.921875 -3.046875 3.753906 -3.390625 3.703125 -3.796875 C 3.648438 -4.210938 3.695312 -4.644531 3.84375 -5.09375 L 9.5 -20.703125 L 31.734375 -20.703125 L 29.921875 -15.703125 Z M 15.171875 -15.703125 "/></g></g></g><g fill="#b5ff00" fill-opacity="1"><g transform="translate(259.576271, 33.07473)"><g><path d="M 9.46875 0 L 2 0 L 9.5 -20.703125 L 25.53125 -20.703125 C 27.925781 -20.703125 29.640625 -20.210938 30.671875 -19.234375 C 31.710938 -18.265625 31.863281 -16.75 31.125 -14.6875 L 30.015625 -11.703125 C 29.929688 -11.460938 29.816406 -11.25 29.671875 -11.0625 C 29.535156 -10.875 29.351562 -10.660156 29.125 -10.421875 L 26.546875 -8.546875 C 25.785156 -7.972656 25.066406 -7.6875 24.390625 -7.6875 L 22.390625 -7.6875 L 26.640625 -0.1875 L 26.578125 0 L 17.359375 0 L 13.03125 -9.796875 Z M 15.171875 -15.703125 L 13.484375 -11.03125 L 20.671875 -11.03125 C 21.109375 -11.03125 21.539062 -11.1875 21.96875 -11.5 C 22.394531 -11.820312 22.679688 -12.1875 22.828125 -12.59375 L 23.375 -14.15625 C 23.539062 -14.59375 23.519531 -14.957031 23.3125 -15.25 C 23.113281 -15.550781 22.804688 -15.703125 22.390625 -15.703125 Z M 15.171875 -15.703125 "/></g></g></g></g></g><g transform="matrix(1, 0, 0, 1, 117, 102)"><g clip-path="url(#b30ca39df6)"><g fill="#ffffff" fill-opacity="1"><g transform="translate(0.586021, 10.973759)"><g><path d="M 1.890625 -6.203125 L 6.015625 -6.203125 C 6.222656 -6.203125 6.390625 -6.132812 6.515625 -6 C 6.648438 -5.863281 6.71875 -5.695312 6.71875 -5.5 C 6.71875 -5.46875 6.71875 -5.4375 6.71875 -5.40625 C 6.71875 -5.375 6.710938 -5.34375 6.703125 -5.3125 L 6.421875 -3.921875 C 6.378906 -3.734375 6.285156 -3.566406 6.140625 -3.421875 C 6.003906 -3.273438 5.847656 -3.164062 5.671875 -3.09375 C 5.796875 -3.039062 5.894531 -2.957031 5.96875 -2.84375 C 6.039062 -2.726562 6.078125 -2.597656 6.078125 -2.453125 C 6.078125 -2.390625 6.070312 -2.328125 6.0625 -2.265625 L 5.765625 -0.890625 C 5.734375 -0.722656 5.660156 -0.570312 5.546875 -0.4375 C 5.441406 -0.300781 5.3125 -0.191406 5.15625 -0.109375 C 5.007812 -0.0351562 4.851562 0 4.6875 0 L 0.578125 0 Z M 1.984375 -2.6875 L 1.59375 -0.8125 L 4.53125 -0.8125 C 4.632812 -0.8125 4.726562 -0.847656 4.8125 -0.921875 C 4.90625 -0.992188 4.960938 -1.078125 4.984375 -1.171875 L 5.203125 -2.21875 C 5.210938 -2.238281 5.21875 -2.253906 5.21875 -2.265625 C 5.21875 -2.285156 5.21875 -2.304688 5.21875 -2.328125 C 5.21875 -2.429688 5.179688 -2.515625 5.109375 -2.578125 C 5.046875 -2.648438 4.957031 -2.6875 4.84375 -2.6875 Z M 2.171875 -3.5 L 5.015625 -3.5 C 5.148438 -3.5 5.269531 -3.546875 5.375 -3.640625 C 5.476562 -3.734375 5.546875 -3.84375 5.578125 -3.96875 L 5.796875 -5.015625 C 5.804688 -5.035156 5.8125 -5.0625 5.8125 -5.09375 C 5.8125 -5.1875 5.78125 -5.257812 5.71875 -5.3125 C 5.664062 -5.363281 5.59375 -5.390625 5.5 -5.390625 L 2.5625 -5.390625 Z M 2.171875 -3.5 "/></g></g></g><g fill="#ffffff" fill-opacity="1"><g transform="translate(7.236351, 10.973759)"><g><path d="M 3.734375 -6.203125 L 5.046875 -6.203125 L 6.0625 0 L 5.171875 0 L 4.90625 -1.640625 L 1.953125 -1.640625 L 0.96875 0 L 0.09375 0 Z M 2.4375 -2.453125 L 4.75 -2.453125 L 4.234375 -5.484375 Z M 2.4375 -2.453125 "/></g></g></g><g fill="#ffffff" fill-opacity="1"><g transform="translate(13.886681, 10.973759)"><g><path d="M 1.40625 -6.203125 L 6.40625 -6.203125 L 6.234375 -5.390625 L 4.15625 -5.390625 L 3.015625 0 L 2.171875 0 L 3.3125 -5.390625 L 1.234375 -5.390625 Z M 1.40625 -6.203125 "/></g></g></g><g fill="#ffffff" fill-opacity="1"><g transform="translate(19.557389, 10.973759)"><g><path d="M 2.765625 -6.203125 L 6.015625 -6.203125 C 6.222656 -6.203125 6.390625 -6.132812 6.515625 -6 C 6.648438 -5.863281 6.71875 -5.695312 6.71875 -5.5 C 6.71875 -5.46875 6.71875 -5.4375 6.71875 -5.40625 C 6.71875 -5.375 6.710938 -5.34375 6.703125 -5.3125 L 6.578125 -4.734375 L 5.734375 -4.734375 L 5.796875 -5.015625 C 5.804688 -5.035156 5.8125 -5.0625 5.8125 -5.09375 C 5.8125 -5.1875 5.78125 -5.257812 5.71875 -5.3125 C 5.664062 -5.363281 5.59375 -5.390625 5.5 -5.390625 L 2.9375 -5.390625 C 2.832031 -5.390625 2.738281 -5.351562 2.65625 -5.28125 C 2.570312 -5.207031 2.515625 -5.117188 2.484375 -5.015625 L 1.671875 -1.171875 C 1.660156 -1.160156 1.65625 -1.144531 1.65625 -1.125 C 1.65625 -1.113281 1.65625 -1.101562 1.65625 -1.09375 C 1.65625 -1.007812 1.679688 -0.941406 1.734375 -0.890625 C 1.796875 -0.835938 1.875 -0.8125 1.96875 -0.8125 L 4.53125 -0.8125 C 4.632812 -0.8125 4.726562 -0.847656 4.8125 -0.921875 C 4.90625 -0.992188 4.960938 -1.078125 4.984375 -1.171875 L 5.046875 -1.453125 L 5.890625 -1.453125 L 5.765625 -0.890625 C 5.734375 -0.722656 5.660156 -0.570312 5.546875 -0.4375 C 5.441406 -0.300781 5.3125 -0.191406 5.15625 -0.109375 C 5.007812 -0.0351562 4.851562 0 4.6875 0 L 1.453125 0 C 1.242188 0 1.070312 -0.0625 0.9375 -0.1875 C 0.800781 -0.320312 0.734375 -0.488281 0.734375 -0.6875 C 0.734375 -0.75 0.742188 -0.816406 0.765625 -0.890625 L 1.703125 -5.3125 C 1.742188 -5.476562 1.816406 -5.625 1.921875 -5.75 C 2.023438 -5.882812 2.148438 -5.992188 2.296875 -6.078125 C 2.453125 -6.160156 2.609375 -6.203125 2.765625 -6.203125 Z M 2.765625 -6.203125 "/></g></g></g><g fill="#ffffff" fill-opacity="1"><g transform="translate(26.080287, 10.973759)"><g><path d="M 1.890625 -6.203125 L 2.734375 -6.203125 L 2.171875 -3.53125 L 5.484375 -3.53125 L 6.046875 -6.203125 L 6.890625 -6.203125 L 5.578125 0 L 4.734375 0 L 5.296875 -2.65625 L 1.984375 -2.65625 L 1.421875 0 L 0.578125 0 Z M 1.890625 -6.203125 "/></g></g></g><g fill="#ffffff" fill-opacity="1"><g transform="translate(32.730618, 10.973759)"><g/></g></g><g fill="#ffffff" fill-opacity="1"><g transform="translate(35.605787, 10.973759)"><g><path d="M 1.890625 -6.203125 L 6.015625 -6.203125 C 6.222656 -6.203125 6.390625 -6.132812 6.515625 -6 C 6.648438 -5.863281 6.71875 -5.695312 6.71875 -5.5 C 6.71875 -5.46875 6.71875 -5.4375 6.71875 -5.40625 C 6.71875 -5.375 6.710938 -5.34375 6.703125 -5.3125 L 6.21875 -3.03125 C 6.1875 -2.863281 6.113281 -2.710938 6 -2.578125 C 5.894531 -2.441406 5.765625 -2.332031 5.609375 -2.25 C 5.460938 -2.175781 5.304688 -2.140625 5.140625 -2.140625 L 5.109375 -2.140625 L 6.0625 0 L 5.03125 0 L 4.09375 -2.140625 L 1.875 -2.140625 L 1.421875 0 L 0.578125 0 Z M 2.046875 -2.96875 L 4.984375 -2.96875 C 5.085938 -2.96875 5.179688 -3 5.265625 -3.0625 C 5.359375 -3.132812 5.414062 -3.222656 5.4375 -3.328125 L 5.796875 -5.015625 C 5.804688 -5.035156 5.8125 -5.0625 5.8125 -5.09375 C 5.8125 -5.1875 5.78125 -5.257812 5.71875 -5.3125 C 5.664062 -5.363281 5.59375 -5.390625 5.5 -5.390625 L 2.5625 -5.390625 Z M 2.046875 -2.96875 "/></g></g></g><g fill="#ffffff" fill-opacity="1"><g transform="translate(42.200366, 10.973759)"><g><path d="M 1.890625 -6.203125 L 6.5 -6.203125 L 6.328125 -5.390625 L 2.5625 -5.390625 L 2.171875 -3.5 L 5.046875 -3.5 L 4.875 -2.6875 L 1.984375 -2.6875 L 1.59375 -0.8125 L 5.359375 -0.8125 L 5.171875 0 L 0.578125 0 Z M 1.890625 -6.203125 "/></g></g></g><g fill="#ffffff" fill-opacity="1"><g transform="translate(47.998505, 10.973759)"><g><path d="M 1.890625 -6.203125 L 2.734375 -6.203125 L 5.03125 -1.375 L 6.046875 -6.203125 L 6.890625 -6.203125 L 5.578125 0 L 4.734375 0 L 2.453125 -4.828125 L 1.421875 0 L 0.578125 0 Z M 1.890625 -6.203125 "/></g></g></g><g fill="#ffffff" fill-opacity="1"><g transform="translate(54.648835, 10.973759)"><g><path d="M 3.734375 -6.203125 L 5.046875 -6.203125 L 6.0625 0 L 5.171875 0 L 4.90625 -1.640625 L 1.953125 -1.640625 L 0.96875 0 L 0.09375 0 Z M 2.4375 -2.453125 L 4.75 -2.453125 L 4.234375 -5.484375 Z M 2.4375 -2.453125 "/></g></g></g><g fill="#ffffff" fill-opacity="1"><g transform="translate(61.299166, 10.973759)"><g><path d="M 1.890625 -6.203125 L 2.734375 -6.203125 L 3.953125 -1.859375 L 7.015625 -6.203125 L 7.859375 -6.203125 L 6.546875 0 L 5.71875 0 L 6.734375 -4.8125 L 3.984375 -0.890625 L 3.515625 -0.890625 L 2.4375 -4.8125 L 1.421875 0 L 0.578125 0 Z M 1.890625 -6.203125 "/></g></g></g><g fill="#ffffff" fill-opacity="1"><g transform="translate(68.92117, 10.973759)"><g><path d="M 1.890625 -6.203125 L 6.5 -6.203125 L 6.328125 -5.390625 L 2.5625 -5.390625 L 2.171875 -3.5 L 5.046875 -3.5 L 4.875 -2.6875 L 1.984375 -2.6875 L 1.59375 -0.8125 L 5.359375 -0.8125 L 5.171875 0 L 0.578125 0 Z M 1.890625 -6.203125 "/></g></g></g><g fill="#ffffff" fill-opacity="1"><g transform="translate(74.719308, 10.973759)"><g/></g></g><g fill="#ffffff" fill-opacity="1"><g transform="translate(77.594477, 10.973759)"><g><path d="M 1.890625 -6.203125 L 6.5 -6.203125 L 6.328125 -5.390625 L 2.5625 -5.390625 L 2.171875 -3.5 L 5.046875 -3.5 L 4.875 -2.6875 L 1.984375 -2.6875 L 1.421875 0 L 0.578125 0 Z M 1.890625 -6.203125 "/></g></g></g><g fill="#ffffff" fill-opacity="1"><g transform="translate(83.305005, 10.973759)"><g><path d="M 1.890625 -6.203125 L 2.734375 -6.203125 L 1.421875 0 L 0.578125 0 Z M 1.890625 -6.203125 "/></g></g></g><g fill="#ffffff" fill-opacity="1"><g transform="translate(85.789919, 10.973759)"><g><path d="M 1.890625 -6.203125 L 2.734375 -6.203125 L 1.59375 -0.8125 L 5.359375 -0.8125 L 5.171875 0 L 0.578125 0 Z M 1.890625 -6.203125 "/></g></g></g><g fill="#ffffff" fill-opacity="1"><g transform="translate(91.500447, 10.973759)"><g><path d="M 1.890625 -6.203125 L 6.5 -6.203125 L 6.328125 -5.390625 L 2.5625 -5.390625 L 2.171875 -3.5 L 5.046875 -3.5 L 4.875 -2.6875 L 1.984375 -2.6875 L 1.59375 -0.8125 L 5.359375 -0.8125 L 5.171875 0 L 0.578125 0 Z M 1.890625 -6.203125 "/></g></g></g><g fill="#ffffff" fill-opacity="1"><g transform="translate(97.298586, 10.973759)"><g><path d="M 2.765625 -6.203125 L 6.71875 -6.203125 L 6.546875 -5.390625 L 2.9375 -5.390625 C 2.832031 -5.390625 2.738281 -5.351562 2.65625 -5.28125 C 2.570312 -5.207031 2.515625 -5.117188 2.484375 -5.015625 L 2.25 -3.875 C 2.238281 -3.851562 2.234375 -3.828125 2.234375 -3.796875 C 2.234375 -3.710938 2.265625 -3.640625 2.328125 -3.578125 C 2.390625 -3.523438 2.460938 -3.5 2.546875 -3.5 L 5.4375 -3.5 C 5.65625 -3.5 5.828125 -3.429688 5.953125 -3.296875 C 6.085938 -3.171875 6.15625 -3.007812 6.15625 -2.8125 C 6.15625 -2.75 6.148438 -2.6875 6.140625 -2.625 L 5.765625 -0.890625 C 5.734375 -0.722656 5.660156 -0.570312 5.546875 -0.4375 C 5.441406 -0.300781 5.3125 -0.191406 5.15625 -0.109375 C 5.007812 -0.0351562 4.851562 0 4.6875 0 L 0.75 0 L 0.921875 -0.8125 L 4.53125 -0.8125 C 4.632812 -0.8125 4.726562 -0.847656 4.8125 -0.921875 C 4.90625 -0.992188 4.960938 -1.078125 4.984375 -1.171875 L 5.234375 -2.3125 C 5.234375 -2.332031 5.234375 -2.363281 5.234375 -2.40625 C 5.234375 -2.488281 5.203125 -2.554688 5.140625 -2.609375 C 5.085938 -2.660156 5.019531 -2.6875 4.9375 -2.6875 L 2.03125 -2.6875 C 1.820312 -2.6875 1.648438 -2.753906 1.515625 -2.890625 C 1.378906 -3.023438 1.3125 -3.191406 1.3125 -3.390625 C 1.3125 -3.421875 1.3125 -3.453125 1.3125 -3.484375 C 1.320312 -3.515625 1.328125 -3.546875 1.328125 -3.578125 L 1.703125 -5.3125 C 1.742188 -5.476562 1.816406 -5.625 1.921875 -5.75 C 2.023438 -5.882812 2.148438 -5.992188 2.296875 -6.078125 C 2.453125 -6.160156 2.609375 -6.203125 2.765625 -6.203125 Z M 2.765625 -6.203125 "/></g></g></g><g fill="#ffffff" fill-opacity="1"><g transform="translate(103.948916, 10.973759)"><g/></g></g><g fill="#ffffff" fill-opacity="1"><g transform="translate(106.824085, 10.973759)"><g><path d="M 1.046875 -3.0625 L 4.453125 -3.0625 L 4.28125 -2.3125 L 0.890625 -2.3125 Z M 1.046875 -3.0625 "/></g></g></g><g fill="#ffffff" fill-opacity="1"><g transform="translate(111.507189, 10.973759)"><g/></g></g><g fill="#ffffff" fill-opacity="1"><g transform="translate(114.382358, 10.973759)"><g><path d="M 2.765625 -6.203125 L 6.015625 -6.203125 C 6.210938 -6.203125 6.378906 -6.132812 6.515625 -6 C 6.648438 -5.863281 6.71875 -5.691406 6.71875 -5.484375 C 6.71875 -5.460938 6.71875 -5.4375 6.71875 -5.40625 C 6.71875 -5.375 6.710938 -5.34375 6.703125 -5.3125 L 5.765625 -0.890625 C 5.734375 -0.722656 5.660156 -0.570312 5.546875 -0.4375 C 5.441406 -0.3125 5.3125 -0.207031 5.15625 -0.125 C 5.007812 -0.0390625 4.851562 0 4.6875 0 L 1.453125 0 C 1.242188 0 1.070312 -0.0664062 0.9375 -0.203125 C 0.8125 -0.347656 0.75 -0.515625 0.75 -0.703125 C 0.75 -0.734375 0.75 -0.765625 0.75 -0.796875 C 0.75 -0.828125 0.753906 -0.859375 0.765625 -0.890625 L 1.703125 -5.3125 C 1.742188 -5.46875 1.816406 -5.613281 1.921875 -5.75 C 2.023438 -5.882812 2.148438 -5.992188 2.296875 -6.078125 C 2.453125 -6.160156 2.609375 -6.203125 2.765625 -6.203125 Z M 2.9375 -5.390625 C 2.832031 -5.390625 2.738281 -5.351562 2.65625 -5.28125 C 2.570312 -5.207031 2.515625 -5.117188 2.484375 -5.015625 L 1.671875 -1.171875 C 1.660156 -1.160156 1.65625 -1.144531 1.65625 -1.125 C 1.65625 -1.113281 1.65625 -1.101562 1.65625 -1.09375 C 1.65625 -1.007812 1.679688 -0.941406 1.734375 -0.890625 C 1.796875 -0.835938 1.875 -0.8125 1.96875 -0.8125 L 4.53125 -0.8125 C 4.632812 -0.8125 4.726562 -0.847656 4.8125 -0.921875 C 4.90625 -0.992188 4.960938 -1.078125 4.984375 -1.171875 L 5.796875 -5.015625 C 5.804688 -5.035156 5.8125 -5.0625 5.8125 -5.09375 C 5.8125 -5.1875 5.78125 -5.257812 5.71875 -5.3125 C 5.664062 -5.363281 5.59375 -5.390625 5.5 -5.390625 Z M 2.9375 -5.390625 "/></g></g></g><g fill="#ffffff" fill-opacity="1"><g transform="translate(121.032688, 10.973759)"><g><path d="M 1.890625 -6.203125 L 6.015625 -6.203125 C 6.222656 -6.203125 6.390625 -6.132812 6.515625 -6 C 6.648438 -5.863281 6.71875 -5.695312 6.71875 -5.5 C 6.71875 -5.46875 6.71875 -5.4375 6.71875 -5.40625 C 6.71875 -5.375 6.710938 -5.34375 6.703125 -5.3125 L 6.140625 -2.65625 C 6.109375 -2.488281 6.035156 -2.335938 5.921875 -2.203125 C 5.816406 -2.078125 5.6875 -1.972656 5.53125 -1.890625 C 5.382812 -1.804688 5.226562 -1.765625 5.0625 -1.765625 L 1.796875 -1.765625 L 1.421875 0 L 0.578125 0 Z M 1.96875 -2.578125 L 4.90625 -2.578125 C 5.007812 -2.578125 5.101562 -2.613281 5.1875 -2.6875 C 5.28125 -2.757812 5.335938 -2.847656 5.359375 -2.953125 L 5.8125 -5.046875 C 5.8125 -5.066406 5.8125 -5.09375 5.8125 -5.125 C 5.8125 -5.21875 5.785156 -5.289062 5.734375 -5.34375 C 5.679688 -5.394531 5.609375 -5.421875 5.515625 -5.421875 L 2.578125 -5.421875 Z M 1.96875 -2.578125 "/></g></g></g><g fill="#ffffff" fill-opacity="1"><g transform="translate(127.683018, 10.973759)"><g><path d="M 1.890625 -6.203125 L 6.5 -6.203125 L 6.328125 -5.390625 L 2.5625 -5.390625 L 2.171875 -3.5 L 5.046875 -3.5 L 4.875 -2.6875 L 1.984375 -2.6875 L 1.59375 -0.8125 L 5.359375 -0.8125 L 5.171875 0 L 0.578125 0 Z M 1.890625 -6.203125 "/></g></g></g><g fill="#ffffff" fill-opacity="1"><g transform="translate(133.481157, 10.973759)"><g><path d="M 1.890625 -6.203125 L 2.734375 -6.203125 L 5.03125 -1.375 L 6.046875 -6.203125 L 6.890625 -6.203125 L 5.578125 0 L 4.734375 0 L 2.453125 -4.828125 L 1.421875 0 L 0.578125 0 Z M 1.890625 -6.203125 "/></g></g></g><g fill="#ffffff" fill-opacity="1"><g transform="translate(140.131488, 10.973759)"><g/></g></g><g fill="#ffffff" fill-opacity="1"><g transform="translate(143.006657, 10.973759)"><g><path d="M 2.765625 -6.203125 L 6.71875 -6.203125 L 6.546875 -5.390625 L 2.9375 -5.390625 C 2.832031 -5.390625 2.738281 -5.351562 2.65625 -5.28125 C 2.570312 -5.207031 2.515625 -5.117188 2.484375 -5.015625 L 2.25 -3.875 C 2.238281 -3.851562 2.234375 -3.828125 2.234375 -3.796875 C 2.234375 -3.710938 2.265625 -3.640625 2.328125 -3.578125 C 2.390625 -3.523438 2.460938 -3.5 2.546875 -3.5 L 5.4375 -3.5 C 5.65625 -3.5 5.828125 -3.429688 5.953125 -3.296875 C 6.085938 -3.171875 6.15625 -3.007812 6.15625 -2.8125 C 6.15625 -2.75 6.148438 -2.6875 6.140625 -2.625 L 5.765625 -0.890625 C 5.734375 -0.722656 5.660156 -0.570312 5.546875 -0.4375 C 5.441406 -0.300781 5.3125 -0.191406 5.15625 -0.109375 C 5.007812 -0.0351562 4.851562 0 4.6875 0 L 0.75 0 L 0.921875 -0.8125 L 4.53125 -0.8125 C 4.632812 -0.8125 4.726562 -0.847656 4.8125 -0.921875 C 4.90625 -0.992188 4.960938 -1.078125 4.984375 -1.171875 L 5.234375 -2.3125 C 5.234375 -2.332031 5.234375 -2.363281 5.234375 -2.40625 C 5.234375 -2.488281 5.203125 -2.554688 5.140625 -2.609375 C 5.085938 -2.660156 5.019531 -2.6875 4.9375 -2.6875 L 2.03125 -2.6875 C 1.820312 -2.6875 1.648438 -2.753906 1.515625 -2.890625 C 1.378906 -3.023438 1.3125 -3.191406 1.3125 -3.390625 C 1.3125 -3.421875 1.3125 -3.453125 1.3125 -3.484375 C 1.320312 -3.515625 1.328125 -3.546875 1.328125 -3.578125 L 1.703125 -5.3125 C 1.742188 -5.476562 1.816406 -5.625 1.921875 -5.75 C 2.023438 -5.882812 2.148438 -5.992188 2.296875 -6.078125 C 2.453125 -6.160156 2.609375 -6.203125 2.765625 -6.203125 Z M 2.765625 -6.203125 "/></g></g></g><g fill="#ffffff" fill-opacity="1"><g transform="translate(149.656987, 10.973759)"><g><path d="M 2.765625 -6.203125 L 6.015625 -6.203125 C 6.210938 -6.203125 6.378906 -6.132812 6.515625 -6 C 6.648438 -5.863281 6.71875 -5.691406 6.71875 -5.484375 C 6.71875 -5.460938 6.71875 -5.4375 6.71875 -5.40625 C 6.71875 -5.375 6.710938 -5.34375 6.703125 -5.3125 L 5.765625 -0.890625 C 5.734375 -0.722656 5.660156 -0.570312 5.546875 -0.4375 C 5.441406 -0.3125 5.3125 -0.207031 5.15625 -0.125 C 5.007812 -0.0390625 4.851562 0 4.6875 0 L 1.453125 0 C 1.242188 0 1.070312 -0.0664062 0.9375 -0.203125 C 0.8125 -0.347656 0.75 -0.515625 0.75 -0.703125 C 0.75 -0.734375 0.75 -0.765625 0.75 -0.796875 C 0.75 -0.828125 0.753906 -0.859375 0.765625 -0.890625 L 1.703125 -5.3125 C 1.742188 -5.46875 1.816406 -5.613281 1.921875 -5.75 C 2.023438 -5.882812 2.148438 -5.992188 2.296875 -6.078125 C 2.453125 -6.160156 2.609375 -6.203125 2.765625 -6.203125 Z M 2.9375 -5.390625 C 2.832031 -5.390625 2.738281 -5.351562 2.65625 -5.28125 C 2.570312 -5.207031 2.515625 -5.117188 2.484375 -5.015625 L 1.671875 -1.171875 C 1.660156 -1.160156 1.65625 -1.144531 1.65625 -1.125 C 1.65625 -1.113281 1.65625 -1.101562 1.65625 -1.09375 C 1.65625 -1.007812 1.679688 -0.941406 1.734375 -0.890625 C 1.796875 -0.835938 1.875 -0.8125 1.96875 -0.8125 L 4.53125 -0.8125 C 4.632812 -0.8125 4.726562 -0.847656 4.8125 -0.921875 C 4.90625 -0.992188 4.960938 -1.078125 4.984375 -1.171875 L 5.796875 -5.015625 C 5.804688 -5.035156 5.8125 -5.0625 5.8125 -5.09375 C 5.8125 -5.1875 5.78125 -5.257812 5.71875 -5.3125 C 5.664062 -5.363281 5.59375 -5.390625 5.5 -5.390625 Z M 2.9375 -5.390625 "/></g></g></g><g fill="#ffffff" fill-opacity="1"><g transform="translate(156.307317, 10.973759)"><g><path d="M 1.890625 -6.203125 L 2.734375 -6.203125 L 1.671875 -1.171875 C 1.660156 -1.160156 1.65625 -1.144531 1.65625 -1.125 C 1.65625 -1.113281 1.65625 -1.101562 1.65625 -1.09375 C 1.65625 -1.007812 1.679688 -0.941406 1.734375 -0.890625 C 1.796875 -0.835938 1.875 -0.8125 1.96875 -0.8125 L 4.53125 -0.8125 C 4.632812 -0.8125 4.726562 -0.847656 4.8125 -0.921875 C 4.90625 -0.992188 4.960938 -1.078125 4.984375 -1.171875 L 6.046875 -6.203125 L 6.890625 -6.203125 L 5.765625 -0.890625 C 5.734375 -0.722656 5.660156 -0.570312 5.546875 -0.4375 C 5.441406 -0.3125 5.3125 -0.207031 5.15625 -0.125 C 5.007812 -0.0390625 4.851562 0 4.6875 0 L 1.453125 0 C 1.242188 0 1.070312 -0.0664062 0.9375 -0.203125 C 0.8125 -0.347656 0.75 -0.515625 0.75 -0.703125 C 0.75 -0.734375 0.75 -0.765625 0.75 -0.796875 C 0.75 -0.828125 0.753906 -0.859375 0.765625 -0.890625 Z M 1.890625 -6.203125 "/></g></g></g><g fill="#ffffff" fill-opacity="1"><g transform="translate(162.957648, 10.973759)"><g><path d="M 1.890625 -6.203125 L 6.015625 -6.203125 C 6.222656 -6.203125 6.390625 -6.132812 6.515625 -6 C 6.648438 -5.863281 6.71875 -5.695312 6.71875 -5.5 C 6.71875 -5.46875 6.71875 -5.4375 6.71875 -5.40625 C 6.71875 -5.375 6.710938 -5.34375 6.703125 -5.3125 L 6.21875 -3.03125 C 6.1875 -2.863281 6.113281 -2.710938 6 -2.578125 C 5.894531 -2.441406 5.765625 -2.332031 5.609375 -2.25 C 5.460938 -2.175781 5.304688 -2.140625 5.140625 -2.140625 L 5.109375 -2.140625 L 6.0625 0 L 5.03125 0 L 4.09375 -2.140625 L 1.875 -2.140625 L 1.421875 0 L 0.578125 0 Z M 2.046875 -2.96875 L 4.984375 -2.96875 C 5.085938 -2.96875 5.179688 -3 5.265625 -3.0625 C 5.359375 -3.132812 5.414062 -3.222656 5.4375 -3.328125 L 5.796875 -5.015625 C 5.804688 -5.035156 5.8125 -5.0625 5.8125 -5.09375 C 5.8125 -5.1875 5.78125 -5.257812 5.71875 -5.3125 C 5.664062 -5.363281 5.59375 -5.390625 5.5 -5.390625 L 2.5625 -5.390625 Z M 2.046875 -2.96875 "/></g></g></g><g fill="#ffffff" fill-opacity="1"><g transform="translate(169.552227, 10.973759)"><g><path d="M 2.765625 -6.203125 L 6.015625 -6.203125 C 6.222656 -6.203125 6.390625 -6.132812 6.515625 -6 C 6.648438 -5.863281 6.71875 -5.695312 6.71875 -5.5 C 6.71875 -5.46875 6.71875 -5.4375 6.71875 -5.40625 C 6.71875 -5.375 6.710938 -5.34375 6.703125 -5.3125 L 6.578125 -4.734375 L 5.734375 -4.734375 L 5.796875 -5.015625 C 5.804688 -5.035156 5.8125 -5.0625 5.8125 -5.09375 C 5.8125 -5.1875 5.78125 -5.257812 5.71875 -5.3125 C 5.664062 -5.363281 5.59375 -5.390625 5.5 -5.390625 L 2.9375 -5.390625 C 2.832031 -5.390625 2.738281 -5.351562 2.65625 -5.28125 C 2.570312 -5.207031 2.515625 -5.117188 2.484375 -5.015625 L 1.671875 -1.171875 C 1.660156 -1.160156 1.65625 -1.144531 1.65625 -1.125 C 1.65625 -1.113281 1.65625 -1.101562 1.65625 -1.09375 C 1.65625 -1.007812 1.679688 -0.941406 1.734375 -0.890625 C 1.796875 -0.835938 1.875 -0.8125 1.96875 -0.8125 L 4.53125 -0.8125 C 4.632812 -0.8125 4.726562 -0.847656 4.8125 -0.921875 C 4.90625 -0.992188 4.960938 -1.078125 4.984375 -1.171875 L 5.046875 -1.453125 L 5.890625 -1.453125 L 5.765625 -0.890625 C 5.734375 -0.722656 5.660156 -0.570312 5.546875 -0.4375 C 5.441406 -0.300781 5.3125 -0.191406 5.15625 -0.109375 C 5.007812 -0.0351562 4.851562 0 4.6875 0 L 1.453125 0 C 1.242188 0 1.070312 -0.0625 0.9375 -0.1875 C 0.800781 -0.320312 0.734375 -0.488281 0.734375 -0.6875 C 0.734375 -0.75 0.742188 -0.816406 0.765625 -0.890625 L 1.703125 -5.3125 C 1.742188 -5.476562 1.816406 -5.625 1.921875 -5.75 C 2.023438 -5.882812 2.148438 -5.992188 2.296875 -6.078125 C 2.453125 -6.160156 2.609375 -6.203125 2.765625 -6.203125 Z M 2.765625 -6.203125 "/></g></g></g><g fill="#ffffff" fill-opacity="1"><g transform="translate(176.075126, 10.973759)"><g><path d="M 1.890625 -6.203125 L 6.5 -6.203125 L 6.328125 -5.390625 L 2.5625 -5.390625 L 2.171875 -3.5 L 5.046875 -3.5 L 4.875 -2.6875 L 1.984375 -2.6875 L 1.59375 -0.8125 L 5.359375 -0.8125 L 5.171875 0 L 0.578125 0 Z M 1.890625 -6.203125 "/></g></g></g><g fill="#ffffff" fill-opacity="1"><g transform="translate(181.873265, 10.973759)"><g/></g></g><g fill="#ffffff" fill-opacity="1"><g transform="translate(184.748424, 10.973759)"><g><path d="M 1.890625 -6.203125 L 6.015625 -6.203125 C 6.222656 -6.203125 6.390625 -6.132812 6.515625 -6 C 6.648438 -5.863281 6.71875 -5.695312 6.71875 -5.5 C 6.71875 -5.46875 6.71875 -5.4375 6.71875 -5.40625 C 6.71875 -5.375 6.710938 -5.34375 6.703125 -5.3125 L 6.140625 -2.65625 C 6.109375 -2.488281 6.035156 -2.335938 5.921875 -2.203125 C 5.816406 -2.078125 5.6875 -1.972656 5.53125 -1.890625 C 5.382812 -1.804688 5.226562 -1.765625 5.0625 -1.765625 L 1.796875 -1.765625 L 1.421875 0 L 0.578125 0 Z M 1.96875 -2.578125 L 4.90625 -2.578125 C 5.007812 -2.578125 5.101562 -2.613281 5.1875 -2.6875 C 5.28125 -2.757812 5.335938 -2.847656 5.359375 -2.953125 L 5.8125 -5.046875 C 5.8125 -5.066406 5.8125 -5.09375 5.8125 -5.125 C 5.8125 -5.21875 5.785156 -5.289062 5.734375 -5.34375 C 5.679688 -5.394531 5.609375 -5.421875 5.515625 -5.421875 L 2.578125 -5.421875 Z M 1.96875 -2.578125 "/></g></g></g><g fill="#ffffff" fill-opacity="1"><g transform="translate(191.398774, 10.973759)"><g><path d="M 1.890625 -6.203125 L 6.015625 -6.203125 C 6.222656 -6.203125 6.390625 -6.132812 6.515625 -6 C 6.648438 -5.863281 6.71875 -5.695312 6.71875 -5.5 C 6.71875 -5.46875 6.71875 -5.4375 6.71875 -5.40625 C 6.71875 -5.375 6.710938 -5.34375 6.703125 -5.3125 L 6.21875 -3.03125 C 6.1875 -2.863281 6.113281 -2.710938 6 -2.578125 C 5.894531 -2.441406 5.765625 -2.332031 5.609375 -2.25 C 5.460938 -2.175781 5.304688 -2.140625 5.140625 -2.140625 L 5.109375 -2.140625 L 6.0625 0 L 5.03125 0 L 4.09375 -2.140625 L 1.875 -2.140625 L 1.421875 0 L 0.578125 0 Z M 2.046875 -2.96875 L 4.984375 -2.96875 C 5.085938 -2.96875 5.179688 -3 5.265625 -3.0625 C 5.359375 -3.132812 5.414062 -3.222656 5.4375 -3.328125 L 5.796875 -5.015625 C 5.804688 -5.035156 5.8125 -5.0625 5.8125 -5.09375 C 5.8125 -5.1875 5.78125 -5.257812 5.71875 -5.3125 C 5.664062 -5.363281 5.59375 -5.390625 5.5 -5.390625 L 2.5625 -5.390625 Z M 2.046875 -2.96875 "/></g></g></g><g fill="#ffffff" fill-opacity="1"><g transform="translate(197.993344, 10.973759)"><g><path d="M 2.765625 -6.203125 L 6.015625 -6.203125 C 6.210938 -6.203125 6.378906 -6.132812 6.515625 -6 C 6.648438 -5.863281 6.71875 -5.691406 6.71875 -5.484375 C 6.71875 -5.460938 6.71875 -5.4375 6.71875 -5.40625 C 6.71875 -5.375 6.710938 -5.34375 6.703125 -5.3125 L 5.765625 -0.890625 C 5.734375 -0.722656 5.660156 -0.570312 5.546875 -0.4375 C 5.441406 -0.3125 5.3125 -0.207031 5.15625 -0.125 C 5.007812 -0.0390625 4.851562 0 4.6875 0 L 1.453125 0 C 1.242188 0 1.070312 -0.0664062 0.9375 -0.203125 C 0.8125 -0.347656 0.75 -0.515625 0.75 -0.703125 C 0.75 -0.734375 0.75 -0.765625 0.75 -0.796875 C 0.75 -0.828125 0.753906 -0.859375 0.765625 -0.890625 L 1.703125 -5.3125 C 1.742188 -5.46875 1.816406 -5.613281 1.921875 -5.75 C 2.023438 -5.882812 2.148438 -5.992188 2.296875 -6.078125 C 2.453125 -6.160156 2.609375 -6.203125 2.765625 -6.203125 Z M 2.9375 -5.390625 C 2.832031 -5.390625 2.738281 -5.351562 2.65625 -5.28125 C 2.570312 -5.207031 2.515625 -5.117188 2.484375 -5.015625 L 1.671875 -1.171875 C 1.660156 -1.160156 1.65625 -1.144531 1.65625 -1.125 C 1.65625 -1.113281 1.65625 -1.101562 1.65625 -1.09375 C 1.65625 -1.007812 1.679688 -0.941406 1.734375 -0.890625 C 1.796875 -0.835938 1.875 -0.8125 1.96875 -0.8125 L 4.53125 -0.8125 C 4.632812 -0.8125 4.726562 -0.847656 4.8125 -0.921875 C 4.90625 -0.992188 4.960938 -1.078125 4.984375 -1.171875 L 5.796875 -5.015625 C 5.804688 -5.035156 5.8125 -5.0625 5.8125 -5.09375 C 5.8125 -5.1875 5.78125 -5.257812 5.71875 -5.3125 C 5.664062 -5.363281 5.59375 -5.390625 5.5 -5.390625 Z M 2.9375 -5.390625 "/></g></g></g><g fill="#ffffff" fill-opacity="1"><g transform="translate(204.643674, 10.973759)"><g><path d="M 5.046875 -6.203125 L 5.890625 -6.203125 L 4.765625 -0.890625 C 4.734375 -0.722656 4.664062 -0.570312 4.5625 -0.4375 C 4.457031 -0.300781 4.328125 -0.191406 4.171875 -0.109375 C 4.015625 -0.0351562 3.859375 0 3.703125 0 L 1.34375 0 C 1.132812 0 0.960938 -0.0625 0.828125 -0.1875 C 0.691406 -0.320312 0.625 -0.488281 0.625 -0.6875 C 0.625 -0.75 0.632812 -0.816406 0.65625 -0.890625 L 0.90625 -2.109375 L 1.75 -2.109375 L 1.546875 -1.171875 C 1.546875 -1.160156 1.546875 -1.144531 1.546875 -1.125 C 1.546875 -1.113281 1.546875 -1.101562 1.546875 -1.09375 C 1.546875 -1.007812 1.570312 -0.941406 1.625 -0.890625 C 1.6875 -0.835938 1.765625 -0.8125 1.859375 -0.8125 L 3.53125 -0.8125 C 3.644531 -0.8125 3.742188 -0.847656 3.828125 -0.921875 C 3.910156 -0.992188 3.960938 -1.078125 3.984375 -1.171875 Z M 5.046875 -6.203125 "/></g></g></g><g fill="#ffffff" fill-opacity="1"><g transform="translate(210.282531, 10.973759)"><g><path d="M 1.890625 -6.203125 L 6.5 -6.203125 L 6.328125 -5.390625 L 2.5625 -5.390625 L 2.171875 -3.5 L 5.046875 -3.5 L 4.875 -2.6875 L 1.984375 -2.6875 L 1.59375 -0.8125 L 5.359375 -0.8125 L 5.171875 0 L 0.578125 0 Z M 1.890625 -6.203125 "/></g></g></g><g fill="#ffffff" fill-opacity="1"><g transform="translate(216.08065, 10.973759)"><g><path d="M 2.765625 -6.203125 L 6.015625 -6.203125 C 6.222656 -6.203125 6.390625 -6.132812 6.515625 -6 C 6.648438 -5.863281 6.71875 -5.695312 6.71875 -5.5 C 6.71875 -5.46875 6.71875 -5.4375 6.71875 -5.40625 C 6.71875 -5.375 6.710938 -5.34375 6.703125 -5.3125 L 6.578125 -4.734375 L 5.734375 -4.734375 L 5.796875 -5.015625 C 5.804688 -5.035156 5.8125 -5.0625 5.8125 -5.09375 C 5.8125 -5.1875 5.78125 -5.257812 5.71875 -5.3125 C 5.664062 -5.363281 5.59375 -5.390625 5.5 -5.390625 L 2.9375 -5.390625 C 2.832031 -5.390625 2.738281 -5.351562 2.65625 -5.28125 C 2.570312 -5.207031 2.515625 -5.117188 2.484375 -5.015625 L 1.671875 -1.171875 C 1.660156 -1.160156 1.65625 -1.144531 1.65625 -1.125 C 1.65625 -1.113281 1.65625 -1.101562 1.65625 -1.09375 C 1.65625 -1.007812 1.679688 -0.941406 1.734375 -0.890625 C 1.796875 -0.835938 1.875 -0.8125 1.96875 -0.8125 L 4.53125 -0.8125 C 4.632812 -0.8125 4.726562 -0.847656 4.8125 -0.921875 C 4.90625 -0.992188 4.960938 -1.078125 4.984375 -1.171875 L 5.046875 -1.453125 L 5.890625 -1.453125 L 5.765625 -0.890625 C 5.734375 -0.722656 5.660156 -0.570312 5.546875 -0.4375 C 5.441406 -0.300781 5.3125 -0.191406 5.15625 -0.109375 C 5.007812 -0.0351562 4.851562 0 4.6875 0 L 1.453125 0 C 1.242188 0 1.070312 -0.0625 0.9375 -0.1875 C 0.800781 -0.320312 0.734375 -0.488281 0.734375 -0.6875 C 0.734375 -0.75 0.742188 -0.816406 0.765625 -0.890625 L 1.703125 -5.3125 C 1.742188 -5.476562 1.816406 -5.625 1.921875 -5.75 C 2.023438 -5.882812 2.148438 -5.992188 2.296875 -6.078125 C 2.453125 -6.160156 2.609375 -6.203125 2.765625 -6.203125 Z M 2.765625 -6.203125 "/></g></g></g><g fill="#ffffff" fill-opacity="1"><g transform="translate(222.603558, 10.973759)"><g><path d="M 1.40625 -6.203125 L 6.40625 -6.203125 L 6.234375 -5.390625 L 4.15625 -5.390625 L 3.015625 0 L 2.171875 0 L 3.3125 -5.390625 L 1.234375 -5.390625 Z M 1.40625 -6.203125 "/></g></g></g></g></g></svg>